<svg width="180" height="180" viewBox="0 0 180 180" fill="none" xmlns="http://www.w3.org/2000/svg">
<g id="Monogram">
<path id="Ellipse 31" d="M180 90C180 139.706 139.706 180 90 180C40.2944 180 0 139.706 0 90C0 40.2944 40.2944 0 90 0C139.706 0 180 40.2944 180 90Z" fill="white"/>
<g id="Brandmark">
<path id="Vector" d="M63.6 45L88.176 94.344L113.264 45H122.736C122.736 45 122.5 86 122.5 106.5C116.5 107.381 115 109.5 113.264 113C113.264 102 113.264 73.16 113.264 73.16L92.656 110.6H83.952L63.6 73.16V134.6H54V45H63.6Z" fill="#383838"/>
<path id="Rectangle 137" d="M113.068 127.387C112.453 121.899 116.306 116.962 121.672 116.361L131.389 115.272C132.731 115.122 133.943 116.112 134.097 117.485L134.932 124.938C135.546 130.427 131.694 135.363 126.328 135.964L116.611 137.053C115.269 137.203 114.057 136.213 113.903 134.84L113.068 127.387Z" fill="#72B847"/>
</g>
</g>
</svg>
