<svg width="640" height="640" viewBox="0 0 640 640" fill="none" xmlns="http://www.w3.org/2000/svg">
<g id="Monogram dark">
<path id="Ellipse 31" d="M640 320C640 496.731 496.731 640 320 640C143.269 640 0 496.731 0 320C0 143.269 143.269 0 320 0C496.731 0 640 143.269 640 320Z" fill="#383838"/>
<g id="Brandmark">
<path id="Vector" d="M226.133 160L313.515 335.445L402.716 160H436.395C436.395 160 435.556 305.778 435.556 378.667C414.222 381.798 408.889 389.333 402.716 401.778C402.716 362.667 402.716 260.124 402.716 260.124L329.444 393.244H298.496L226.133 260.124V478.578H192V160H226.133Z" fill="white"/>
<path id="Rectangle 137" d="M402.576 460.811C400.171 439.345 415.097 420.053 435.912 417.721L473.603 413.499C478.806 412.917 483.512 416.794 484.114 422.161L487.379 451.312C489.784 472.778 474.858 492.07 454.043 494.402L416.352 498.624C411.149 499.207 406.443 495.329 405.841 489.962L402.576 460.811Z" fill="#72B847"/>
</g>
</g>
</svg>
