<svg width="146" height="95" viewBox="0 0 146 95" fill="none" xmlns="http://www.w3.org/2000/svg">
<path d="M130.117 7.82221C130.117 5.43188 130.805 3.58481 132.182 2.281C133.558 0.953042 135.441 0.289062 137.831 0.289062C140.198 0.289062 142.045 0.965114 143.373 2.31722C144.701 3.64518 145.365 5.49225 145.365 7.85843V19.1068C145.365 20.5797 145.051 21.8593 144.423 22.9458C143.795 24.0082 142.902 24.8291 141.743 25.4086C140.608 25.9639 139.292 26.2416 137.795 26.2416C136.371 26.2416 135.079 25.976 133.92 25.4448C132.761 24.9136 131.831 24.1169 131.131 23.0545C130.455 21.9921 130.117 20.6762 130.117 19.1068V7.82221ZM131.276 19.1068C131.276 20.4589 131.566 21.5817 132.145 22.475C132.725 23.3684 133.497 24.0444 134.463 24.5032C135.453 24.9378 136.552 25.1551 137.759 25.1551C138.99 25.1551 140.089 24.9378 141.055 24.5032C142.045 24.0444 142.817 23.3684 143.373 22.475C143.952 21.5817 144.242 20.4589 144.242 19.1068V7.67734C144.242 6.34938 143.988 5.22665 143.481 4.30916C142.998 3.39166 142.274 2.67939 141.308 2.17235C140.367 1.66531 139.196 1.41179 137.795 1.41179C136.395 1.41179 135.212 1.66531 134.246 2.17235C133.28 2.67939 132.544 3.40373 132.037 4.34537C131.53 5.28702 131.276 6.40975 131.276 7.71356V19.1068Z" fill="#383838"/>
<path d="M91.4593 0C93.2943 0 94.8275 0.338026 96.0588 1.01408C97.3144 1.69013 98.256 2.64384 98.8838 3.87522C99.5357 5.08246 99.8616 6.507 99.8616 8.14884V18.8631C99.8616 20.4566 99.5719 21.7966 98.9924 22.8831C98.4371 23.9455 97.592 24.7544 96.4572 25.3097C95.3224 25.8409 93.8979 26.1065 92.1836 26.1065H84.6143V0H91.4593ZM91.749 25.02C92.8597 25.02 93.8496 24.9113 94.7188 24.694C95.588 24.4767 96.3124 24.1266 96.8918 23.6437C97.4955 23.1367 97.9421 22.4727 98.2319 21.6518C98.5458 20.8308 98.7027 19.8288 98.7027 18.6457V8.14884C98.7027 6.77259 98.4492 5.55328 97.9421 4.49091C97.4351 3.42855 96.6745 2.59556 95.6605 1.99194C94.6705 1.38832 93.3909 1.08651 91.8215 1.08651H85.7732V25.02H91.749Z" fill="#383838"/>
<path d="M68.7395 18.9928C68.7395 20.5381 68.4135 21.8419 67.7616 22.9043C67.1339 23.9666 66.2526 24.7755 65.1178 25.3308C63.983 25.862 62.6671 26.1276 61.1701 26.1276C59.6732 26.1276 58.3452 25.862 57.1862 25.3308C56.0273 24.7996 55.1219 24.0029 54.47 22.9405C53.8422 21.8781 53.5283 20.5622 53.5283 18.9928V0H54.651V18.9928C54.651 20.3208 54.9287 21.4314 55.484 22.3248C56.0635 23.2182 56.8361 23.8942 57.8019 24.353C58.7919 24.8117 59.9146 25.0411 61.1701 25.0411C62.4498 25.0411 63.5725 24.8238 64.5383 24.3892C65.5041 23.9304 66.2526 23.2544 66.7838 22.361C67.3149 21.4677 67.5805 20.3449 67.5805 18.9928V0H68.7395V18.9928Z" fill="#383838"/>
<path d="M35.106 1.19979V26.2197H34.0195V1.19979H27.3193V0.113281H41.9148V1.19979H35.106Z" fill="#383838"/>
<path d="M15.3861 2.55545C14.879 2.24157 14.3237 1.98805 13.7201 1.79489C13.1165 1.60173 12.5008 1.45686 11.873 1.36029C11.2453 1.26371 10.6296 1.21542 10.026 1.21542C9.27748 1.21542 8.50485 1.29993 7.70807 1.46894C6.91129 1.63795 6.17488 1.91562 5.49883 2.30193C4.82278 2.6641 4.27952 3.15907 3.86906 3.78683C3.4586 4.41459 3.25337 5.16308 3.25337 6.03229C3.25337 6.9015 3.4586 7.64998 3.86906 8.27774C4.27952 8.88136 4.83485 9.41255 5.53505 9.87129C6.23524 10.3059 7.01995 10.7043 7.88916 11.0665C8.75836 11.4045 9.65172 11.7425 10.5692 12.0805C11.5109 12.4186 12.4163 12.8049 13.2855 13.2395C14.1789 13.6499 14.9756 14.1449 15.6758 14.7244C16.376 15.2797 16.9313 15.9558 17.3418 16.7525C17.7523 17.5493 17.9575 18.5151 17.9575 19.6499C17.9575 20.8088 17.704 21.8109 17.1969 22.6559C16.714 23.501 16.0621 24.1891 15.2412 24.7203C14.4203 25.2515 13.5028 25.6378 12.4887 25.8792C11.4988 26.1448 10.4847 26.2776 9.44649 26.2776C8.33583 26.2776 7.23725 26.1328 6.15074 25.843C5.08837 25.5774 4.09844 25.1549 3.18094 24.5754C2.26344 23.9959 1.45459 23.2475 0.754395 22.33L1.51495 21.6781C2.11857 22.4748 2.84291 23.1267 3.68798 23.6338C4.55719 24.1408 5.47468 24.5271 6.44047 24.7927C7.4304 25.0342 8.40827 25.1549 9.37405 25.1549C10.2674 25.1549 11.1487 25.0583 12.0179 24.8652C12.9113 24.672 13.708 24.3581 14.4082 23.9235C15.1326 23.4648 15.7 22.8732 16.1104 22.1489C16.545 21.4245 16.7623 20.5433 16.7623 19.505C16.7623 18.5392 16.5571 17.7183 16.1466 17.0423C15.7362 16.3421 15.1809 15.7505 14.4807 15.2676C13.7805 14.7606 12.9958 14.3139 12.1266 13.9276C11.2573 13.5413 10.3519 13.1791 9.41027 12.8411C8.49277 12.5031 7.59942 12.1409 6.73021 11.7546C5.861 11.3441 5.0763 10.8974 4.3761 10.4145C3.6759 9.90751 3.12058 9.30389 2.71012 8.6037C2.29966 7.9035 2.09443 7.07051 2.09443 6.10472C2.09443 5.01821 2.3238 4.10071 2.78255 3.35222C3.26544 2.57959 3.89321 1.9639 4.66584 1.50515C5.46261 1.02226 6.33182 0.672162 7.27346 0.45486C8.21511 0.237557 9.14468 0.128906 10.0622 0.128906C10.7382 0.128906 11.3901 0.189268 12.0179 0.309991C12.6698 0.40657 13.3096 0.551439 13.9374 0.744597C14.5652 0.937753 15.1688 1.19127 15.7483 1.50515L15.3861 2.55545Z" fill="#383838"/>
<path d="M136.862 34.8959C137.088 34.7993 137.329 34.751 137.587 34.751C137.844 34.751 138.102 34.751 138.359 34.751C138.939 34.751 139.454 34.8476 139.904 35.0408C140.355 35.2017 140.741 35.4754 141.063 35.8617C141.353 36.2158 141.578 36.6665 141.739 37.2138C141.9 37.7289 141.981 38.3244 141.981 39.0005V41.7047H136.91L138.021 45.0849H141.981V65.8494H145.651V39.2902C145.651 37.8415 145.442 36.6182 145.023 35.6202C144.572 34.6222 143.993 33.8174 143.285 33.2058C142.576 32.5941 141.804 32.1595 140.967 31.9019C140.13 31.6444 139.293 31.5156 138.456 31.5156C138.198 31.5156 137.957 31.5317 137.731 31.5639C137.474 31.5639 137.232 31.58 137.007 31.6122C136.75 31.6122 136.508 31.6444 136.283 31.7088L136.862 34.8959Z" fill="#383838"/>
<path d="M129.652 49.5679C129.652 48.4733 129.491 47.5719 129.169 46.8637C128.847 46.1554 128.38 45.6243 127.769 45.2701C127.157 44.8838 126.449 44.6263 125.644 44.4975C124.839 44.3365 123.954 44.2561 122.988 44.2561L123.181 41.6484C125.113 41.6484 126.722 41.8255 128.01 42.1796C129.298 42.5337 130.312 43.1132 131.052 43.918C131.825 44.6907 132.372 45.753 132.694 47.1051C133.048 48.425 133.225 50.0669 133.225 52.0307V65.4732C133.096 65.5054 132.807 65.5376 132.356 65.5698C131.937 65.602 131.439 65.6342 130.859 65.6664C130.28 65.7308 129.652 65.7791 128.976 65.8113C128.332 65.8756 127.688 65.9078 127.044 65.9078C126.4 65.94 125.805 65.9561 125.257 65.9561C123.777 65.9883 122.392 65.8756 121.105 65.6181C119.817 65.3927 118.69 64.9742 117.724 64.3626C116.759 63.7187 116.002 62.8495 115.455 61.7549C114.907 60.6282 114.634 59.2117 114.634 57.5055V54.0588C114.634 52.7389 114.827 51.6282 115.213 50.7268C115.6 49.7933 116.131 49.0367 116.807 48.4572C117.483 47.8778 118.239 47.4593 119.076 47.2017C119.946 46.9442 120.847 46.8154 121.781 46.8154C122.746 46.8154 123.712 46.9442 124.678 47.2017C125.644 47.4271 126.545 47.749 127.382 48.1675C128.251 48.5538 129.008 49.0206 129.652 49.5679ZM129.652 52.417C129.04 52.0629 128.316 51.7248 127.479 51.4029C126.674 51.0488 125.805 50.759 124.871 50.5337C123.97 50.2761 123.052 50.1474 122.119 50.1474C121.732 50.1474 121.314 50.2118 120.863 50.3405C120.412 50.4371 119.978 50.6303 119.559 50.92C119.173 51.2097 118.851 51.6282 118.594 52.1755C118.336 52.7228 118.207 53.4471 118.207 54.3486V57.0226C118.207 57.9884 118.304 58.8415 118.497 59.5819C118.69 60.3224 119.044 60.9501 119.559 61.4652C120.074 61.9481 120.799 62.3022 121.732 62.5276C122.666 62.7529 123.841 62.8334 125.257 62.769C125.74 62.769 126.191 62.7529 126.61 62.7207C127.06 62.6885 127.463 62.6563 127.817 62.6241C128.203 62.592 128.525 62.5759 128.783 62.5759C129.072 62.5437 129.282 62.5276 129.41 62.5276C129.571 62.4954 129.652 62.4793 129.652 62.4793V52.417Z" fill="#383838"/>
<path d="M97.133 58.6784C97.133 59.3867 97.2457 59.9983 97.471 60.5134C97.6964 61.0285 98.0022 61.4631 98.3885 61.8172C98.807 62.1392 99.2899 62.3806 99.8372 62.5416C100.417 62.7025 101.028 62.783 101.672 62.783C102.767 62.783 103.877 62.5899 105.004 62.2036C106.163 61.8172 107.306 61.3343 108.433 60.7549L109.785 63.7005C108.626 64.4088 107.322 64.9721 105.873 65.3907C104.457 65.777 103.089 65.9701 101.769 65.9701C100.578 65.9701 99.467 65.8414 98.4368 65.5838C97.4388 65.3585 96.5696 64.9721 95.8292 64.4249C95.1209 63.8454 94.5576 63.105 94.139 62.2036C93.7527 61.3022 93.5596 60.2076 93.5596 58.9199V49.7751C93.5596 47.9401 93.9459 46.4109 94.7185 45.1876C95.4911 43.9642 96.5535 43.0467 97.9056 42.4351C99.2577 41.8234 100.787 41.5176 102.493 41.5176C104.199 41.5176 105.68 41.8234 106.936 42.4351C108.223 43.0146 109.221 43.916 109.93 45.1393C110.638 46.3304 110.992 47.8274 110.992 49.6302V56.2941L97.133 57.0185V58.6784ZM107.37 49.8716C107.37 48.8737 107.177 47.9884 106.791 47.2157C106.405 46.4431 105.841 45.8314 105.101 45.3807C104.36 44.93 103.475 44.7047 102.445 44.7047C101.286 44.7369 100.304 44.9783 99.4992 45.429C98.7265 45.8475 98.131 46.4592 97.7125 47.264C97.3261 48.0688 97.133 49.0507 97.133 50.2097V53.6382L107.37 53.1553V49.8716Z" fill="#383838"/>
<path d="M84.5156 65.8495V32.0469H88.089V65.8495H84.5156Z" fill="#383838"/>
<path d="M73.941 58.7207C73.941 59.5256 74.0698 60.2177 74.3274 60.7972C74.5849 61.3445 74.9551 61.7952 75.438 62.1493C75.9209 62.5034 76.5326 62.761 77.273 62.9219L76.1624 65.7227C74.1664 65.3364 72.6855 64.5799 71.7197 63.4531C70.7861 62.2942 70.3193 60.7167 70.3193 58.7207V32.0469H73.941V40.9502H79.3977L78.2388 44.2339H73.941V58.7207Z" fill="#383838"/>
<path d="M62.3175 49.3353C62.3175 48.4339 62.1727 47.6773 61.8829 47.0657C61.5932 46.454 61.1908 45.955 60.6757 45.5687C60.1606 45.1824 59.5811 44.9087 58.9373 44.7478C58.3256 44.5546 57.6657 44.458 56.9574 44.458C56.3457 44.458 55.7341 44.5063 55.1224 44.6029C54.5429 44.6995 53.9635 44.8605 53.384 45.0858C52.8045 45.3112 52.209 45.6009 51.5973 45.955V65.8503H47.9756V41.6573H51.5973V43.1059C52.1124 42.784 52.6919 42.4782 53.3357 42.1884C53.9796 41.8987 54.6717 41.6734 55.4122 41.5124C56.1526 41.3192 56.893 41.2227 57.6335 41.2227C58.5993 41.2227 59.5007 41.3353 60.3377 41.5607C61.1747 41.7538 61.9312 42.0597 62.6073 42.4782C63.2833 42.8967 63.8628 43.4279 64.3457 44.0717C64.8286 44.6834 65.1988 45.4077 65.4564 46.2448C65.7139 47.0818 65.8427 48.0637 65.8427 49.1904V65.8503H62.3175V49.3353Z" fill="#383838"/>
<path d="M146 73.9609V75.47H0V73.9609H146Z" fill="#72B847"/>
<path d="M138.001 84.8184C137.87 84.7279 137.719 84.6574 137.548 84.6071C137.387 84.5468 137.216 84.5015 137.035 84.4713C136.864 84.4411 136.693 84.426 136.522 84.426C136.321 84.426 136.11 84.4512 135.888 84.5015C135.677 84.5417 135.481 84.6122 135.3 84.7128C135.119 84.8033 134.973 84.924 134.862 85.0749C134.751 85.2258 134.696 85.4069 134.696 85.6182C134.696 85.8697 134.772 86.081 134.922 86.252C135.083 86.423 135.29 86.579 135.541 86.7198C135.793 86.8506 136.069 86.9763 136.371 87.0971C136.673 87.2077 136.975 87.3335 137.277 87.4743C137.588 87.6051 137.87 87.761 138.122 87.9421C138.373 88.1232 138.574 88.3445 138.725 88.6061C138.886 88.8576 138.967 89.1695 138.967 89.5417C138.967 89.9039 138.891 90.2208 138.74 90.4924C138.589 90.764 138.388 90.9904 138.137 91.1715C137.885 91.3526 137.604 91.4884 137.292 91.5789C136.99 91.6695 136.678 91.7147 136.356 91.7147C135.823 91.7147 135.305 91.599 134.802 91.3676C134.299 91.1363 133.871 90.8194 133.519 90.417L133.987 89.919C134.218 90.1403 134.455 90.3264 134.696 90.4773C134.938 90.6282 135.194 90.7439 135.466 90.8244C135.747 90.8948 136.044 90.93 136.356 90.93C136.547 90.93 136.748 90.9049 136.96 90.8546C137.171 90.8043 137.367 90.7238 137.548 90.6131C137.739 90.4924 137.89 90.3465 138.001 90.1755C138.122 90.0045 138.182 89.7982 138.182 89.5568C138.182 89.2852 138.102 89.0538 137.941 88.8626C137.79 88.6614 137.588 88.4904 137.337 88.3496C137.085 88.1987 136.804 88.0628 136.492 87.9421C136.19 87.8214 135.883 87.6956 135.571 87.5649C135.27 87.4341 134.993 87.2832 134.741 87.1121C134.49 86.9411 134.284 86.7399 134.123 86.5085C133.972 86.2671 133.896 85.9804 133.896 85.6484C133.896 85.3264 133.967 85.0498 134.108 84.8184C134.248 84.577 134.435 84.3757 134.666 84.2148C134.907 84.0438 135.174 83.918 135.466 83.8375C135.757 83.757 136.054 83.7168 136.356 83.7168C136.557 83.7168 136.763 83.7319 136.975 83.7621C137.186 83.7822 137.407 83.8325 137.639 83.913C137.87 83.9834 138.107 84.0941 138.348 84.245L138.001 84.8184Z" fill="#383838"/>
<path d="M130.994 91.6395V81.0762H131.839V91.6395H130.994Z" fill="#383838"/>
<path d="M124.359 89.4279C124.359 89.6995 124.399 89.9309 124.48 90.1221C124.57 90.3032 124.691 90.4541 124.842 90.5748C124.993 90.6854 125.169 90.771 125.37 90.8313C125.582 90.8816 125.808 90.9068 126.049 90.9068C126.422 90.9068 126.789 90.8514 127.151 90.7408C127.513 90.6201 127.88 90.4641 128.253 90.273L128.585 90.9219C128.212 91.1432 127.805 91.3192 127.362 91.45C126.92 91.5708 126.507 91.6311 126.125 91.6311C125.743 91.6311 125.39 91.5959 125.068 91.5255C124.747 91.4551 124.47 91.3343 124.239 91.1633C124.007 90.9923 123.826 90.7659 123.695 90.4842C123.575 90.2026 123.514 89.8504 123.514 89.4279V86.3344C123.514 85.7609 123.635 85.2831 123.876 84.9008C124.118 84.5185 124.45 84.2318 124.872 84.0406C125.295 83.8495 125.773 83.7539 126.306 83.7539C126.849 83.7539 127.317 83.8495 127.709 84.0406C128.112 84.2318 128.419 84.5135 128.63 84.8857C128.851 85.2579 128.962 85.7257 128.962 86.2891V88.2509L124.359 88.4923V89.4279ZM128.117 86.1835C128.117 85.8314 128.036 85.5295 127.875 85.278C127.714 85.0165 127.498 84.8153 127.226 84.6744C126.955 84.5336 126.643 84.4632 126.291 84.4632C125.898 84.4632 125.556 84.5386 125.265 84.6895C124.973 84.8304 124.747 85.0416 124.586 85.3233C124.435 85.605 124.359 85.9471 124.359 86.3495V87.6623L128.117 87.4963V86.1835Z" fill="#383838"/>
<path d="M119.273 87.1118L121.175 84.0938H122.11L119.756 87.8814L122.11 91.639H121.114L119.273 88.6511L117.417 91.639H116.406L118.775 87.8814L116.406 84.0938H117.387L119.273 87.1118Z" fill="#383838"/>
<path d="M113.604 91.6771V84.1168H114.464V91.6771H113.604ZM114.042 80.9629C114.183 80.9629 114.303 81.0132 114.404 81.1138C114.505 81.2144 114.555 81.3351 114.555 81.476C114.555 81.6067 114.505 81.7224 114.404 81.823C114.303 81.9236 114.183 81.974 114.042 81.974C113.911 81.974 113.79 81.9236 113.68 81.823C113.579 81.7224 113.529 81.6067 113.529 81.476C113.529 81.3351 113.579 81.2144 113.68 81.1138C113.79 81.0132 113.911 80.9629 114.042 80.9629Z" fill="#383838"/>
<path d="M111.594 88.7942C111.594 89.7096 111.372 90.4139 110.93 90.9068C110.497 91.3897 109.863 91.6312 109.028 91.6312C108.716 91.6312 108.42 91.5809 108.138 91.4803C107.856 91.3897 107.605 91.2589 107.383 91.0879C107.172 90.9169 107.006 90.7308 106.886 90.5296V94.6492L106.01 94.2871V83.9049H106.886V84.6141C107.107 84.433 107.333 84.2821 107.565 84.1614C107.806 84.0306 108.047 83.935 108.289 83.8747C108.54 83.8043 108.787 83.764 109.028 83.754C109.592 83.7238 110.06 83.8093 110.432 84.0105C110.814 84.2016 111.101 84.4884 111.292 84.8706C111.493 85.2429 111.594 85.6956 111.594 86.2288V88.7942ZM110.734 86.2741C110.734 85.932 110.678 85.6453 110.568 85.4139C110.467 85.1725 110.326 84.9863 110.145 84.8556C109.974 84.7147 109.773 84.6191 109.541 84.5688C109.32 84.5085 109.089 84.4884 108.847 84.5085C108.626 84.5286 108.39 84.5789 108.138 84.6594C107.897 84.7399 107.665 84.8505 107.444 84.9914C107.223 85.1322 107.036 85.3083 106.886 85.5195V88.8243C106.886 89.1463 106.941 89.433 107.051 89.6845C107.162 89.936 107.313 90.1473 107.504 90.3183C107.695 90.4893 107.917 90.6201 108.168 90.7106C108.42 90.8012 108.691 90.8465 108.983 90.8465C109.365 90.8465 109.682 90.776 109.934 90.6352C110.195 90.4943 110.392 90.2831 110.522 90.0014C110.663 89.7197 110.734 89.3626 110.734 88.93V86.2741Z" fill="#383838"/>
<path d="M98.4163 91.45C98.4263 91.45 98.371 91.4551 98.2503 91.4651C98.1396 91.4752 97.9887 91.4852 97.7976 91.4953C97.6165 91.5154 97.4153 91.5305 97.1939 91.5406C96.9827 91.5607 96.7764 91.5758 96.5752 91.5858C96.374 91.5959 96.203 91.6009 96.0622 91.6009C95.5793 91.611 95.1265 91.5808 94.704 91.5104C94.2815 91.44 93.9143 91.3092 93.6024 91.118C93.2905 90.9168 93.0441 90.6351 92.863 90.273C92.692 89.9108 92.6064 89.4531 92.6064 88.8997V86.0326C92.6064 85.61 92.6769 85.2529 92.8177 84.9611C92.9686 84.6694 93.1648 84.438 93.4062 84.267C93.6577 84.0859 93.9294 83.9551 94.2211 83.8746C94.5229 83.7941 94.8247 83.7539 95.1265 83.7539C95.6195 83.7539 96.0672 83.8092 96.4696 83.9199C96.872 84.0306 97.2442 84.1613 97.5863 84.3122V80.8867H98.4163V91.45ZM97.5863 85.0668C97.1839 84.8957 96.7815 84.7549 96.3791 84.6442C95.9867 84.5235 95.5491 84.4632 95.0662 84.4632C94.9354 84.4632 94.7795 84.4833 94.5984 84.5235C94.4173 84.5638 94.2362 84.6392 94.0551 84.7499C93.8841 84.8605 93.7382 85.0265 93.6175 85.2479C93.4968 85.4591 93.4364 85.7408 93.4364 86.0929V88.7941C93.4364 89.1563 93.4767 89.4732 93.5571 89.7448C93.6376 90.0064 93.7734 90.2277 93.9646 90.4088C94.1557 90.5798 94.4123 90.7056 94.7342 90.786C95.0662 90.8565 95.4837 90.8867 95.9867 90.8766C96.1778 90.8665 96.3539 90.8565 96.5149 90.8464C96.6859 90.8363 96.8368 90.8263 96.9676 90.8162C97.0984 90.8062 97.209 90.7961 97.2996 90.786C97.3901 90.776 97.4605 90.771 97.5108 90.771C97.5611 90.7609 97.5863 90.7559 97.5863 90.7559V85.0668Z" fill="#383838"/>
<path d="M89.8785 86.5157C89.8785 86.1736 89.8232 85.8919 89.7125 85.6706C89.6019 85.4392 89.451 85.2581 89.2598 85.1273C89.0687 84.9865 88.8574 84.8859 88.626 84.8255C88.3946 84.7652 88.1582 84.735 87.9168 84.735C87.6854 84.735 87.459 84.7551 87.2377 84.7954C87.0264 84.8356 86.8202 84.896 86.619 84.9764C86.4178 85.0469 86.2116 85.1424 86.0003 85.2632V91.6766H85.1401V84.1163H86.0003V84.6294C86.1914 84.4986 86.3977 84.3879 86.619 84.2974C86.8504 84.1968 87.0868 84.1213 87.3283 84.071C87.5798 84.0106 87.8313 83.9805 88.0828 83.9805C88.4148 83.9805 88.7166 84.0157 88.9882 84.0861C89.2699 84.1565 89.5164 84.2622 89.7276 84.403C89.9389 84.5438 90.115 84.7149 90.2558 84.9161C90.4067 85.1173 90.5174 85.3487 90.5878 85.6102C90.6683 85.8617 90.7085 86.1485 90.7085 86.4704V91.6766H89.8785V86.5157Z" fill="#383838"/>
<path d="M83.3349 88.6592C83.3349 89.5445 83.1086 90.2588 82.6559 90.802C82.2031 91.3352 81.519 91.6018 80.6036 91.6018C79.9798 91.6018 79.4517 91.471 79.0191 91.2095C78.5965 90.9378 78.2796 90.5807 78.0684 90.138C77.8571 89.6954 77.7515 89.2024 77.7515 88.6592V86.6823C77.7515 86.0385 77.8621 85.5003 78.0835 85.0677C78.3048 84.625 78.6267 84.293 79.0492 84.0717C79.4718 83.8403 79.9798 83.7246 80.5734 83.7246C81.4687 83.7246 82.1528 83.9862 82.6257 84.5093C83.0985 85.0324 83.3349 85.7568 83.3349 86.6823V88.6592ZM82.4899 86.6823C82.4899 86.1994 82.4245 85.797 82.2937 85.4751C82.1629 85.1431 81.9567 84.8966 81.675 84.7357C81.4033 84.5646 81.0462 84.4791 80.6036 84.4791C80.1609 84.4791 79.7887 84.5646 79.4869 84.7357C79.1951 84.8966 78.9738 85.1431 78.8229 85.4751C78.672 85.797 78.5965 86.1994 78.5965 86.6823V88.8101C78.5965 89.2125 78.677 89.5696 78.838 89.8815C79.009 90.1833 79.2454 90.4197 79.5472 90.5908C79.849 90.7618 80.2011 90.8473 80.6036 90.8473C81.0261 90.8473 81.3782 90.7668 81.6599 90.6058C81.9416 90.4348 82.1478 90.1984 82.2786 89.8966C82.4194 89.5847 82.4899 89.2226 82.4899 88.8101V86.6823Z" fill="#383838"/>
<path d="M76.3232 84.4268C76.1924 84.4871 76.0767 84.5777 75.9761 84.6984C75.8755 84.8191 75.8252 85.0404 75.8252 85.3624V92.4549C75.8252 92.8674 75.7698 93.2144 75.6592 93.4961C75.5586 93.7879 75.3926 94.0243 75.1612 94.2054C74.9298 94.3865 74.623 94.5424 74.2407 94.6732L73.9992 94.0243C74.1702 93.9539 74.3161 93.8684 74.4368 93.7677C74.5676 93.6671 74.6733 93.5464 74.7537 93.4056C74.8342 93.2748 74.8896 93.1239 74.9197 92.9529C74.96 92.7919 74.9801 92.6209 74.9801 92.4398V90.7648C74.8191 90.966 74.623 91.132 74.3916 91.2627C74.1602 91.3935 73.9137 91.4891 73.6521 91.5495C73.3906 91.6199 73.134 91.6551 72.8825 91.6551C72.46 91.6551 72.0827 91.6048 71.7507 91.5042C71.4288 91.4036 71.1522 91.2527 70.9208 91.0515C70.6994 90.8402 70.5284 90.5786 70.4077 90.2668C70.297 89.9448 70.2417 89.5676 70.2417 89.135V83.959H71.1019V89.0746C71.1019 89.4267 71.1572 89.7185 71.2678 89.9499C71.3886 90.1813 71.5445 90.3623 71.7357 90.4931C71.9268 90.6239 72.1381 90.7195 72.3695 90.7798C72.6008 90.8301 72.8322 90.8553 73.0636 90.8553C73.3352 90.8553 73.5868 90.805 73.8181 90.7044C74.0495 90.5937 74.2507 90.4479 74.4218 90.2668C74.5928 90.0857 74.7286 89.8794 74.8292 89.6481C74.9298 89.4066 74.9801 89.1551 74.9801 88.8935V85.3473C74.9801 85.1159 75.0153 84.8996 75.0857 84.6984C75.1662 84.4871 75.2819 84.306 75.4328 84.1551C75.5938 83.9942 75.79 83.8735 76.0213 83.793L76.3232 84.4268Z" fill="#383838"/>
<path d="M64.0013 89.4279C64.0013 89.6995 64.0416 89.9309 64.122 90.1221C64.2126 90.3032 64.3333 90.4541 64.4842 90.5748C64.6351 90.6854 64.8112 90.771 65.0124 90.8313C65.2236 90.8816 65.45 90.9068 65.6914 90.9068C66.0637 90.9068 66.4309 90.8514 66.793 90.7408C67.1552 90.6201 67.5224 90.4641 67.8946 90.273L68.2266 90.9219C67.8544 91.1432 67.447 91.3192 67.0043 91.45C66.5617 91.5708 66.1492 91.6311 65.7669 91.6311C65.3846 91.6311 65.0325 91.5959 64.7106 91.5255C64.3886 91.4551 64.112 91.3343 63.8806 91.1633C63.6492 90.9923 63.4681 90.7659 63.3373 90.4842C63.2166 90.2026 63.1562 89.8504 63.1562 89.4279V86.3344C63.1562 85.7609 63.277 85.2831 63.5184 84.9008C63.7599 84.5185 64.0919 84.2318 64.5144 84.0406C64.9369 83.8495 65.4148 83.7539 65.948 83.7539C66.4912 83.7539 66.959 83.8495 67.3514 84.0406C67.7538 84.2318 68.0606 84.5135 68.2719 84.8857C68.4932 85.2579 68.6039 85.7257 68.6039 86.2891V88.2509L64.0013 88.4923V89.4279ZM67.7588 86.1835C67.7588 85.8314 67.6784 85.5295 67.5174 85.278C67.3564 85.0165 67.1401 84.8153 66.8685 84.6744C66.5969 84.5336 66.285 84.4632 65.9329 84.4632C65.5405 84.4632 65.1985 84.5386 64.9067 84.6895C64.615 84.8304 64.3886 85.0416 64.2277 85.3233C64.0768 85.605 64.0013 85.9471 64.0013 86.3495V87.6623L67.7588 87.4963V86.1835Z" fill="#383838"/>
<path d="M56.5821 84.3884C56.8135 84.2878 57.0499 84.1973 57.2914 84.1168C57.5429 84.0263 57.8095 83.9558 58.0912 83.9055C58.3829 83.8552 58.6948 83.8301 59.0268 83.8301C59.3286 83.8301 59.6254 83.8703 59.9171 83.9508C60.2189 84.0313 60.4905 84.1621 60.732 84.3431C60.9734 84.5142 61.1646 84.7456 61.3054 85.0373C61.4563 85.3291 61.5318 85.6862 61.5318 86.1087V88.9759C61.5318 89.5292 61.4463 89.987 61.2752 90.3491C61.1042 90.7113 60.8628 90.993 60.5509 91.1942C60.239 91.3854 59.8718 91.5161 59.4493 91.5866C59.0368 91.657 58.5891 91.6872 58.1063 91.6771C57.9654 91.6771 57.7894 91.6721 57.5781 91.662C57.3769 91.652 57.1656 91.6369 56.9443 91.6167C56.733 91.6067 56.5318 91.5916 56.3407 91.5715C56.1495 91.5614 55.9936 91.5513 55.8729 91.5413C55.7622 91.5312 55.7119 91.5262 55.722 91.5262V80.9629H56.5821V84.3884ZM56.5821 90.8471C56.5821 90.8471 56.6173 90.8522 56.6877 90.8622C56.7682 90.8622 56.8739 90.8723 57.0046 90.8924C57.1455 90.9025 57.3165 90.9125 57.5177 90.9226C57.7189 90.9326 57.9403 90.9427 58.1817 90.9528C58.6847 90.9628 59.0972 90.9326 59.4191 90.8622C59.7511 90.7817 60.0076 90.656 60.1887 90.485C60.3799 90.3039 60.5107 90.0825 60.5811 89.821C60.6616 89.5494 60.7018 89.2325 60.7018 88.8703V86.1691C60.7018 85.817 60.6465 85.5353 60.5358 85.324C60.4251 85.1027 60.2793 84.9367 60.0982 84.826C59.9272 84.7154 59.7511 84.6399 59.57 84.5997C59.3889 84.5594 59.228 84.5393 59.0871 84.5393C58.7652 84.5393 58.4634 84.5645 58.1817 84.6148C57.9101 84.6651 57.6435 84.7355 57.3819 84.826C57.1203 84.9166 56.8537 85.0222 56.5821 85.1429V90.8471Z" fill="#383838"/>
<path d="M47.0409 84.8262C46.9102 84.7357 46.7593 84.6652 46.5882 84.6149C46.4273 84.5546 46.2562 84.5093 46.0752 84.4791C45.9041 84.449 45.7331 84.4339 45.5621 84.4339C45.3609 84.4339 45.1496 84.459 44.9283 84.5093C44.717 84.5496 44.5208 84.62 44.3398 84.7206C44.1587 84.8111 44.0128 84.9318 43.9021 85.0827C43.7915 85.2337 43.7361 85.4147 43.7361 85.626C43.7361 85.8775 43.8116 86.0888 43.9625 86.2598C44.1235 86.4308 44.3297 86.5868 44.5812 86.7276C44.8327 86.8584 45.1094 86.9841 45.4112 87.1049C45.713 87.2155 46.0148 87.3413 46.3166 87.4821C46.6285 87.6129 46.9102 87.7688 47.1617 87.9499C47.4132 88.131 47.6144 88.3523 47.7653 88.6139C47.9262 88.8654 48.0067 89.1773 48.0067 89.5495C48.0067 89.9117 47.9313 90.2286 47.7804 90.5002C47.6295 90.7718 47.4283 90.9982 47.1768 91.1793C46.9252 91.3604 46.6436 91.4962 46.3317 91.5867C46.0299 91.6773 45.718 91.7225 45.3961 91.7225C44.8629 91.7225 44.3448 91.6068 43.8418 91.3755C43.3388 91.1441 42.9112 90.8272 42.5591 90.4248L43.0269 89.9268C43.2583 90.1481 43.4947 90.3342 43.7361 90.4851C43.9776 90.636 44.2341 90.7517 44.5057 90.8322C44.7874 90.9026 45.0842 90.9378 45.3961 90.9378C45.5872 90.9378 45.7884 90.9127 45.9997 90.8624C46.211 90.8121 46.4071 90.7316 46.5882 90.6209C46.7794 90.5002 46.9303 90.3543 47.0409 90.1833C47.1617 90.0123 47.222 89.8061 47.222 89.5646C47.222 89.293 47.1415 89.0616 46.9806 88.8704C46.8297 88.6692 46.6285 88.4982 46.377 88.3574C46.1255 88.2065 45.8438 88.0707 45.5319 87.9499C45.2301 87.8292 44.9233 87.7035 44.6114 87.5727C44.3096 87.4419 44.0329 87.291 43.7814 87.12C43.5299 86.9489 43.3237 86.7477 43.1627 86.5163C43.0118 86.2749 42.9363 85.9882 42.9363 85.6562C42.9363 85.3343 43.0068 85.0576 43.1476 84.8262C43.2885 84.5848 43.4746 84.3836 43.706 84.2226C43.9474 84.0516 44.214 83.9258 44.5057 83.8453C44.7975 83.7649 45.0943 83.7246 45.3961 83.7246C45.5973 83.7246 45.8035 83.7397 46.0148 83.7699C46.2261 83.79 46.4474 83.8403 46.6788 83.9208C46.9102 83.9912 47.1466 84.1019 47.388 84.2528L47.0409 84.8262Z" fill="#383838"/>
<path d="M36.7342 89.4279C36.7342 89.6995 36.7745 89.9309 36.855 90.1221C36.9455 90.3032 37.0662 90.4541 37.2171 90.5748C37.368 90.6854 37.5441 90.771 37.7453 90.8313C37.9566 90.8816 38.1829 90.9068 38.4244 90.9068C38.7966 90.9068 39.1638 90.8514 39.526 90.7408C39.8881 90.6201 40.2553 90.4641 40.6276 90.273L40.9595 90.9219C40.5873 91.1432 40.1799 91.3192 39.7372 91.45C39.2946 91.5708 38.8821 91.6311 38.4998 91.6311C38.1175 91.6311 37.7654 91.5959 37.4435 91.5255C37.1215 91.4551 36.8449 91.3343 36.6135 91.1633C36.3821 90.9923 36.201 90.7659 36.0702 90.4842C35.9495 90.2026 35.8892 89.8504 35.8892 89.4279V86.3344C35.8892 85.7609 36.0099 85.2831 36.2513 84.9008C36.4928 84.5185 36.8248 84.2318 37.2473 84.0406C37.6698 83.8495 38.1477 83.7539 38.6809 83.7539C39.2241 83.7539 39.692 83.8495 40.0843 84.0406C40.4867 84.2318 40.7936 84.5135 41.0048 84.8857C41.2261 85.2579 41.3368 85.7257 41.3368 86.2891V88.2509L36.7342 88.4923V89.4279ZM40.4917 86.1835C40.4917 85.8314 40.4113 85.5295 40.2503 85.278C40.0893 85.0165 39.873 84.8153 39.6014 84.6744C39.3298 84.5336 39.0179 84.4632 38.6658 84.4632C38.2734 84.4632 37.9314 84.5386 37.6397 84.6895C37.3479 84.8304 37.1215 85.0416 36.9606 85.3233C36.8097 85.605 36.7342 85.9471 36.7342 86.3495V87.6623L40.4917 87.4963V86.1835Z" fill="#383838"/>
<path d="M32.7761 91.6009V84.0406H33.6363V91.6009H32.7761ZM33.2138 80.8867C33.3546 80.8867 33.4753 80.937 33.5759 81.0376C33.6765 81.1382 33.7268 81.2589 33.7268 81.3998C33.7268 81.5306 33.6765 81.6463 33.5759 81.7469C33.4753 81.8475 33.3546 81.8978 33.2138 81.8978C33.083 81.8978 32.9623 81.8475 32.8516 81.7469C32.751 81.6463 32.7007 81.5306 32.7007 81.3998C32.7007 81.2589 32.751 81.1382 32.8516 81.0376C32.9623 80.937 33.083 80.8867 33.2138 80.8867Z" fill="#383838"/>
<path d="M31.0989 84.6809C31.0989 84.6809 31.0335 84.6759 30.9027 84.6658C30.782 84.6557 30.6362 84.6557 30.4651 84.6658C30.2539 84.6759 30.0275 84.706 29.7861 84.7563C29.5446 84.7966 29.3082 84.8569 29.0768 84.9374C28.8454 85.0079 28.6291 85.0934 28.4279 85.194C28.2267 85.2845 28.0557 85.3751 27.9148 85.4656V91.6376H27.0547V84.0773H27.9148V84.5753C28.2871 84.4042 28.6694 84.2584 29.0617 84.1376C29.4641 84.0169 29.937 83.9415 30.4802 83.9113C30.6613 83.9012 30.8172 83.9062 30.948 83.9264C31.0889 83.9465 31.1593 83.9566 31.1593 83.9566L31.0989 84.6809Z" fill="#383838"/>
<path d="M25.2011 88.7041C25.2011 89.5894 24.9748 90.3037 24.5221 90.8469C24.0694 91.3801 23.3853 91.6467 22.4698 91.6467C21.846 91.6467 21.3179 91.516 20.8853 91.2544C20.4627 90.9828 20.1458 90.6256 19.9346 90.183C19.7233 89.7403 19.6177 89.2474 19.6177 88.7041V86.7273C19.6177 86.0834 19.7283 85.5452 19.9497 85.1126C20.171 84.6699 20.4929 84.3379 20.9155 84.1166C21.338 83.8852 21.846 83.7695 22.4396 83.7695C23.335 83.7695 24.0191 84.0311 24.4919 84.5542C24.9647 85.0774 25.2011 85.8017 25.2011 86.7273V88.7041ZM24.3561 86.7273C24.3561 86.2444 24.2907 85.842 24.1599 85.52C24.0291 85.188 23.8229 84.9416 23.5412 84.7806C23.2696 84.6096 22.9124 84.5241 22.4698 84.5241C22.0271 84.5241 21.6549 84.6096 21.3531 84.7806C21.0613 84.9416 20.84 85.188 20.6891 85.52C20.5382 85.842 20.4627 86.2444 20.4627 86.7273V88.855C20.4627 89.2574 20.5432 89.6146 20.7042 89.9264C20.8752 90.2282 21.1116 90.4647 21.4134 90.6357C21.7152 90.8067 22.0674 90.8922 22.4698 90.8922C22.8923 90.8922 23.2444 90.8117 23.5261 90.6508C23.8078 90.4797 24.014 90.2433 24.1448 89.9415C24.2857 89.6297 24.3561 89.2675 24.3561 88.855V86.7273Z" fill="#383838"/>
<path d="M16.8705 89.4581C16.8705 89.7197 16.9057 89.9561 16.9761 90.1673C17.0566 90.3685 17.1672 90.5396 17.3081 90.6804C17.459 90.8112 17.6451 90.9168 17.8664 90.9973L17.6099 91.6462C17.0566 91.4752 16.6542 91.2136 16.4027 90.8615C16.1511 90.5094 16.0254 90.0416 16.0254 89.4581V80.8867H16.8705V83.9048H18.6964L18.3342 84.6895H16.8705V89.4581Z" fill="#383838"/>
<path d="M13.1438 82.0346C12.9426 81.924 12.7263 81.8334 12.4949 81.763C12.2736 81.6926 12.0422 81.6423 11.8007 81.6121C11.5693 81.5819 11.3329 81.5668 11.0915 81.5668C10.8199 81.5668 10.5382 81.592 10.2464 81.6423C9.95467 81.6926 9.67801 81.7831 9.41644 81.9139C9.16494 82.0346 8.9587 82.2057 8.79774 82.427C8.64683 82.6483 8.57138 82.925 8.57138 83.257C8.57138 83.5789 8.65186 83.8556 8.81283 84.0869C8.97379 84.3183 9.19009 84.5195 9.46172 84.6906C9.7434 84.8616 10.0502 85.0175 10.3822 85.1584C10.7243 85.2992 11.0764 85.44 11.4386 85.5809C11.8108 85.7217 12.1629 85.8827 12.4949 86.0638C12.8369 86.2348 13.1438 86.441 13.4154 86.6825C13.6971 86.9139 13.9184 87.2006 14.0794 87.5427C14.2404 87.8746 14.3208 88.272 14.3208 88.7348C14.3208 89.2378 14.2202 89.6754 14.019 90.0477C13.8178 90.4098 13.5462 90.7116 13.2041 90.9531C12.8621 91.1845 12.4798 91.3555 12.0573 91.4662C11.6347 91.5768 11.2021 91.6322 10.7595 91.6322C10.2867 91.6322 9.83395 91.5768 9.40135 91.4662C8.96876 91.3555 8.56635 91.1845 8.19412 90.9531C7.82189 90.7217 7.47984 90.4249 7.16797 90.0628L7.69613 89.5346C7.9074 89.8163 8.18406 90.0527 8.52611 90.2438C8.86816 90.435 9.23033 90.5809 9.61262 90.6815C9.99491 90.772 10.3571 90.8173 10.6991 90.8173C11.0512 90.8173 11.3883 90.777 11.7102 90.6966C12.0422 90.6161 12.3339 90.4903 12.5854 90.3193C12.847 90.1483 13.0482 89.9219 13.1891 89.6402C13.34 89.3585 13.4154 89.0165 13.4154 88.6141C13.4154 88.272 13.3349 87.9803 13.174 87.7388C13.013 87.4873 12.7967 87.271 12.5251 87.0899C12.2534 86.8988 11.9466 86.7278 11.6046 86.5769C11.2625 86.426 10.9104 86.2801 10.5482 86.1392C10.1961 85.9984 9.84904 85.8475 9.50699 85.6865C9.16494 85.5155 8.8581 85.3244 8.58647 85.1131C8.31484 84.9018 8.09855 84.6503 7.93758 84.3586C7.77662 84.0668 7.69613 83.7248 7.69613 83.3324C7.69613 82.8596 7.79171 82.4572 7.98285 82.1252C8.18406 81.7932 8.44563 81.5266 8.76756 81.3254C9.09955 81.1242 9.46172 80.9783 9.85407 80.8878C10.2565 80.7972 10.6639 80.752 11.0764 80.752C11.348 80.752 11.6146 80.7721 11.8762 80.8123C12.1378 80.8526 12.3943 80.9129 12.6458 80.9934C12.9074 81.0739 13.1538 81.1795 13.3852 81.3103L13.1438 82.0346Z" fill="#383838"/>
<path d="M115 1.026V0H116.218V26.6H115.04V1.14L115 1.026Z" fill="#383838"/>
<path d="M3.84 32L13.6704 51.7376L23.7056 32H27.4944C27.4944 32 27.4944 48.6 27.4944 56.8C25 56.8 24 57.8 23.7056 59.2C23.7056 54.8 23.7056 43.264 23.7056 43.264L15.4624 58.24H11.9808L3.84 43.264V67.84H0V32H3.84Z" fill="#383838"/>
<path d="M23.6001 64C23.6001 61.7909 25.3512 60 27.5112 60H31.4223C31.9623 60 32.4001 60.4477 32.4001 61V64C32.4001 66.2091 30.649 68 28.489 68H24.5779C24.0379 68 23.6001 67.5523 23.6001 67V64Z" fill="#72B847"/>
<path d="M38.1697 65.9999V41.9519H41.7697V65.9999H38.1697ZM39.9937 33.9199C40.5697 33.9199 41.0497 34.1119 41.4337 34.4959C41.8497 34.8799 42.0577 35.3599 42.0577 35.9359C42.0577 36.4799 41.8497 36.9599 41.4337 37.3759C41.0497 37.7599 40.5697 37.9519 39.9937 37.9519C39.4497 37.9519 38.9697 37.7599 38.5537 37.3759C38.1377 36.9599 37.9297 36.4799 37.9297 35.9359C37.9297 35.3599 38.1377 34.8799 38.5537 34.4959C38.9697 34.1119 39.4497 33.9199 39.9937 33.9199Z" fill="#383838"/>
</svg>
