<svg width="146" height="68" viewBox="0 0 146 68" fill="none" xmlns="http://www.w3.org/2000/svg">
<g id="Updated_logo_light_wo_tagline">
<g id="Group 22">
<g id="Group 15">
<g id="STUDiO">
<path id="Vector" d="M130.117 7.82221C130.117 5.43188 130.805 3.58481 132.182 2.281C133.558 0.953042 135.441 0.289062 137.831 0.289062C140.198 0.289062 142.045 0.965114 143.373 2.31722C144.701 3.64518 145.365 5.49225 145.365 7.85843V19.1068C145.365 20.5797 145.051 21.8593 144.423 22.9458C143.795 24.0082 142.902 24.8291 141.743 25.4086C140.608 25.9639 139.292 26.2416 137.795 26.2416C136.371 26.2416 135.079 25.976 133.92 25.4448C132.761 24.9136 131.831 24.1169 131.131 23.0545C130.455 21.9921 130.117 20.6762 130.117 19.1068V7.82221ZM131.276 19.1068C131.276 20.4589 131.566 21.5817 132.145 22.475C132.725 23.3684 133.497 24.0444 134.463 24.5032C135.453 24.9378 136.552 25.1551 137.759 25.1551C138.99 25.1551 140.089 24.9378 141.055 24.5032C142.045 24.0444 142.817 23.3684 143.373 22.475C143.952 21.5817 144.242 20.4589 144.242 19.1068V7.67734C144.242 6.34938 143.988 5.22665 143.481 4.30916C142.998 3.39166 142.274 2.67939 141.308 2.17235C140.367 1.66531 139.196 1.41179 137.795 1.41179C136.395 1.41179 135.212 1.66531 134.246 2.17235C133.28 2.67939 132.544 3.40373 132.037 4.34537C131.53 5.28702 131.276 6.40975 131.276 7.71356V19.1068Z" fill="white"/>
<path id="Vector_2" d="M91.4593 0C93.2943 0 94.8275 0.338026 96.0588 1.01408C97.3144 1.69013 98.256 2.64384 98.8838 3.87522C99.5357 5.08246 99.8616 6.507 99.8616 8.14884V18.8631C99.8616 20.4566 99.5719 21.7966 98.9924 22.8831C98.4371 23.9455 97.592 24.7544 96.4572 25.3097C95.3224 25.8409 93.8979 26.1065 92.1836 26.1065H84.6143V0H91.4593ZM91.749 25.02C92.8597 25.02 93.8496 24.9113 94.7188 24.694C95.588 24.4767 96.3124 24.1266 96.8918 23.6437C97.4955 23.1367 97.9421 22.4727 98.2319 21.6518C98.5458 20.8308 98.7027 19.8288 98.7027 18.6457V8.14884C98.7027 6.77259 98.4492 5.55328 97.9421 4.49091C97.4351 3.42855 96.6745 2.59556 95.6605 1.99194C94.6705 1.38832 93.3909 1.08651 91.8215 1.08651H85.7732V25.02H91.749Z" fill="white"/>
<path id="Vector_3" d="M68.7395 18.9928C68.7395 20.5381 68.4135 21.8419 67.7616 22.9043C67.1339 23.9666 66.2526 24.7755 65.1178 25.3308C63.983 25.862 62.6671 26.1276 61.1701 26.1276C59.6732 26.1276 58.3452 25.862 57.1862 25.3308C56.0273 24.7996 55.1219 24.0029 54.47 22.9405C53.8422 21.8781 53.5283 20.5622 53.5283 18.9928V0H54.651V18.9928C54.651 20.3208 54.9287 21.4314 55.484 22.3248C56.0635 23.2182 56.8361 23.8942 57.8019 24.353C58.7919 24.8117 59.9146 25.0411 61.1701 25.0411C62.4498 25.0411 63.5725 24.8238 64.5383 24.3892C65.5041 23.9304 66.2526 23.2544 66.7838 22.361C67.3149 21.4677 67.5805 20.3449 67.5805 18.9928V0H68.7395V18.9928Z" fill="white"/>
<path id="Vector_4" d="M35.106 1.19979V26.2197H34.0195V1.19979H27.3193V0.113281H41.9148V1.19979H35.106Z" fill="white"/>
<path id="Vector_5" d="M15.3861 2.55545C14.879 2.24157 14.3237 1.98805 13.7201 1.79489C13.1165 1.60173 12.5008 1.45686 11.873 1.36029C11.2453 1.26371 10.6296 1.21542 10.026 1.21542C9.27748 1.21542 8.50485 1.29993 7.70807 1.46894C6.91129 1.63795 6.17488 1.91562 5.49883 2.30193C4.82278 2.6641 4.27952 3.15907 3.86906 3.78683C3.4586 4.41459 3.25337 5.16308 3.25337 6.03229C3.25337 6.9015 3.4586 7.64998 3.86906 8.27774C4.27952 8.88136 4.83485 9.41255 5.53505 9.87129C6.23524 10.3059 7.01995 10.7043 7.88916 11.0665C8.75836 11.4045 9.65172 11.7425 10.5692 12.0805C11.5109 12.4186 12.4163 12.8049 13.2855 13.2395C14.1789 13.6499 14.9756 14.1449 15.6758 14.7244C16.376 15.2797 16.9313 15.9558 17.3418 16.7525C17.7523 17.5493 17.9575 18.5151 17.9575 19.6499C17.9575 20.8088 17.704 21.8109 17.1969 22.6559C16.714 23.501 16.0621 24.1891 15.2412 24.7203C14.4203 25.2515 13.5028 25.6378 12.4887 25.8792C11.4988 26.1448 10.4847 26.2776 9.44649 26.2776C8.33583 26.2776 7.23725 26.1328 6.15074 25.843C5.08837 25.5774 4.09844 25.1549 3.18094 24.5754C2.26344 23.9959 1.45459 23.2475 0.754395 22.33L1.51495 21.6781C2.11857 22.4748 2.84291 23.1267 3.68798 23.6338C4.55719 24.1408 5.47468 24.5271 6.44047 24.7927C7.4304 25.0342 8.40827 25.1549 9.37405 25.1549C10.2674 25.1549 11.1487 25.0583 12.0179 24.8652C12.9113 24.672 13.708 24.3581 14.4082 23.9235C15.1326 23.4648 15.7 22.8732 16.1104 22.1489C16.545 21.4245 16.7623 20.5433 16.7623 19.505C16.7623 18.5392 16.5571 17.7183 16.1466 17.0423C15.7362 16.3421 15.1809 15.7505 14.4807 15.2676C13.7805 14.7606 12.9958 14.3139 12.1266 13.9276C11.2573 13.5413 10.3519 13.1791 9.41027 12.8411C8.49277 12.5031 7.59942 12.1409 6.73021 11.7546C5.861 11.3441 5.0763 10.8974 4.3761 10.4145C3.6759 9.90751 3.12058 9.30389 2.71012 8.6037C2.29966 7.9035 2.09443 7.07051 2.09443 6.10472C2.09443 5.01821 2.3238 4.10071 2.78255 3.35222C3.26544 2.57959 3.89321 1.9639 4.66584 1.50515C5.46261 1.02226 6.33182 0.672162 7.27346 0.45486C8.21511 0.237557 9.14468 0.128906 10.0622 0.128906C10.7382 0.128906 11.3901 0.189268 12.0179 0.309991C12.6698 0.40657 13.3096 0.551439 13.9374 0.744597C14.5652 0.937753 15.1688 1.19127 15.7483 1.50515L15.3861 2.55545Z" fill="white"/>
</g>
<g id="Mintleaf">
<path id="Vector_6" d="M136.862 34.8959C137.088 34.7993 137.329 34.751 137.587 34.751C137.844 34.751 138.102 34.751 138.359 34.751C138.939 34.751 139.454 34.8476 139.904 35.0408C140.355 35.2017 140.741 35.4754 141.063 35.8617C141.353 36.2158 141.578 36.6665 141.739 37.2138C141.9 37.7289 141.981 38.3244 141.981 39.0005V41.7047H136.91L138.021 45.0849H141.981V65.8494H145.651V39.2902C145.651 37.8415 145.442 36.6182 145.023 35.6202C144.572 34.6222 143.993 33.8174 143.285 33.2058C142.576 32.5941 141.804 32.1595 140.967 31.9019C140.13 31.6444 139.293 31.5156 138.456 31.5156C138.198 31.5156 137.957 31.5317 137.731 31.5639C137.474 31.5639 137.232 31.58 137.007 31.6122C136.75 31.6122 136.508 31.6444 136.283 31.7088L136.862 34.8959Z" fill="white"/>
<path id="Vector_7" d="M129.652 49.5679C129.652 48.4733 129.491 47.5719 129.169 46.8637C128.847 46.1554 128.38 45.6243 127.769 45.2701C127.157 44.8838 126.449 44.6263 125.644 44.4975C124.839 44.3365 123.954 44.2561 122.988 44.2561L123.181 41.6484C125.113 41.6484 126.722 41.8255 128.01 42.1796C129.298 42.5337 130.312 43.1132 131.052 43.918C131.825 44.6907 132.372 45.753 132.694 47.1051C133.048 48.425 133.225 50.0669 133.225 52.0307V65.4732C133.096 65.5054 132.807 65.5376 132.356 65.5698C131.937 65.602 131.439 65.6342 130.859 65.6664C130.28 65.7308 129.652 65.7791 128.976 65.8113C128.332 65.8756 127.688 65.9078 127.044 65.9078C126.4 65.94 125.805 65.9561 125.257 65.9561C123.777 65.9883 122.392 65.8756 121.105 65.6181C119.817 65.3927 118.69 64.9742 117.724 64.3626C116.759 63.7187 116.002 62.8495 115.455 61.7549C114.907 60.6282 114.634 59.2117 114.634 57.5055V54.0588C114.634 52.7389 114.827 51.6282 115.213 50.7268C115.6 49.7933 116.131 49.0367 116.807 48.4572C117.483 47.8778 118.239 47.4593 119.076 47.2017C119.946 46.9442 120.847 46.8154 121.781 46.8154C122.746 46.8154 123.712 46.9442 124.678 47.2017C125.644 47.4271 126.545 47.749 127.382 48.1675C128.251 48.5538 129.008 49.0206 129.652 49.5679ZM129.652 52.417C129.04 52.0629 128.316 51.7248 127.479 51.4029C126.674 51.0488 125.805 50.759 124.871 50.5337C123.97 50.2761 123.052 50.1474 122.119 50.1474C121.732 50.1474 121.314 50.2118 120.863 50.3405C120.412 50.4371 119.978 50.6303 119.559 50.92C119.173 51.2097 118.851 51.6282 118.594 52.1755C118.336 52.7228 118.207 53.4471 118.207 54.3486V57.0226C118.207 57.9884 118.304 58.8415 118.497 59.5819C118.69 60.3224 119.044 60.9501 119.559 61.4652C120.074 61.9481 120.799 62.3022 121.732 62.5276C122.666 62.7529 123.841 62.8334 125.257 62.769C125.74 62.769 126.191 62.7529 126.61 62.7207C127.06 62.6885 127.463 62.6563 127.817 62.6241C128.203 62.592 128.525 62.5759 128.783 62.5759C129.072 62.5437 129.282 62.5276 129.41 62.5276C129.571 62.4954 129.652 62.4793 129.652 62.4793V52.417Z" fill="white"/>
<path id="Vector_8" d="M97.133 58.6784C97.133 59.3867 97.2457 59.9983 97.471 60.5134C97.6964 61.0285 98.0022 61.4631 98.3885 61.8172C98.807 62.1392 99.2899 62.3806 99.8372 62.5416C100.417 62.7025 101.028 62.783 101.672 62.783C102.767 62.783 103.877 62.5899 105.004 62.2036C106.163 61.8172 107.306 61.3343 108.433 60.7549L109.785 63.7005C108.626 64.4088 107.322 64.9721 105.873 65.3907C104.457 65.777 103.089 65.9701 101.769 65.9701C100.578 65.9701 99.467 65.8414 98.4368 65.5838C97.4388 65.3585 96.5696 64.9721 95.8292 64.4249C95.1209 63.8454 94.5576 63.105 94.139 62.2036C93.7527 61.3022 93.5596 60.2076 93.5596 58.9199V49.7751C93.5596 47.9401 93.9459 46.4109 94.7185 45.1876C95.4911 43.9642 96.5535 43.0467 97.9056 42.4351C99.2577 41.8234 100.787 41.5176 102.493 41.5176C104.199 41.5176 105.68 41.8234 106.936 42.4351C108.223 43.0146 109.221 43.916 109.93 45.1393C110.638 46.3304 110.992 47.8274 110.992 49.6302V56.2941L97.133 57.0185V58.6784ZM107.37 49.8716C107.37 48.8737 107.177 47.9884 106.791 47.2157C106.405 46.4431 105.841 45.8314 105.101 45.3807C104.36 44.93 103.475 44.7047 102.445 44.7047C101.286 44.7369 100.304 44.9783 99.4992 45.429C98.7265 45.8475 98.131 46.4592 97.7125 47.264C97.3261 48.0688 97.133 49.0507 97.133 50.2097V53.6382L107.37 53.1553V49.8716Z" fill="white"/>
<path id="Vector_9" d="M84.5156 65.8495V32.0469H88.089V65.8495H84.5156Z" fill="white"/>
<path id="Vector_10" d="M73.941 58.7207C73.941 59.5256 74.0698 60.2177 74.3274 60.7972C74.5849 61.3445 74.9551 61.7952 75.438 62.1493C75.9209 62.5034 76.5326 62.761 77.273 62.9219L76.1624 65.7227C74.1664 65.3364 72.6855 64.5799 71.7197 63.4531C70.7861 62.2942 70.3193 60.7167 70.3193 58.7207V32.0469H73.941V40.9502H79.3977L78.2388 44.2339H73.941V58.7207Z" fill="white"/>
<path id="Vector_11" d="M62.3175 49.3353C62.3175 48.4339 62.1727 47.6773 61.8829 47.0657C61.5932 46.454 61.1908 45.955 60.6757 45.5687C60.1606 45.1824 59.5811 44.9087 58.9373 44.7478C58.3256 44.5546 57.6657 44.458 56.9574 44.458C56.3457 44.458 55.7341 44.5063 55.1224 44.6029C54.5429 44.6995 53.9635 44.8605 53.384 45.0858C52.8045 45.3112 52.209 45.6009 51.5973 45.955V65.8503H47.9756V41.6573H51.5973V43.1059C52.1124 42.784 52.6919 42.4782 53.3357 42.1884C53.9796 41.8987 54.6717 41.6734 55.4122 41.5124C56.1526 41.3192 56.893 41.2227 57.6335 41.2227C58.5993 41.2227 59.5007 41.3353 60.3377 41.5607C61.1747 41.7538 61.9312 42.0597 62.6073 42.4782C63.2833 42.8967 63.8628 43.4279 64.3457 44.0717C64.8286 44.6834 65.1988 45.4077 65.4564 46.2448C65.7139 47.0818 65.8427 48.0637 65.8427 49.1904V65.8503H62.3175V49.3353Z" fill="white"/>
</g>
</g>
</g>
<path id="I" d="M115 1.026V0H116.218V26.6H115.04V1.14L115 1.026Z" fill="white"/>
<g id="Brandmark">
<path id="Vector_12" d="M3.84 32L13.6704 51.7376L23.7056 32H27.4944C27.4944 32 27.4944 48.6 27.4944 56.8C25 56.8 24 57.8 23.7056 59.2C23.7056 54.8 23.7056 43.264 23.7056 43.264L15.4624 58.24H11.9808L3.84 43.264V67.84H0V32H3.84Z" fill="white"/>
<path id="Rectangle 137" d="M23.6001 64C23.6001 61.7909 25.3512 60 27.5112 60H31.4223C31.9623 60 32.4001 60.4477 32.4001 61V64C32.4001 66.2091 30.649 68 28.489 68H24.5779C24.0379 68 23.6001 67.5523 23.6001 67V64Z" fill="#72B847"/>
</g>
<path id="i" d="M38.1697 65.9999V41.9519H41.7697V65.9999H38.1697ZM39.9937 33.9199C40.5697 33.9199 41.0497 34.1119 41.4337 34.4959C41.8497 34.8799 42.0577 35.3599 42.0577 35.9359C42.0577 36.4799 41.8497 36.9599 41.4337 37.3759C41.0497 37.7599 40.5697 37.9519 39.9937 37.9519C39.4497 37.9519 38.9697 37.7599 38.5537 37.3759C38.1377 36.9599 37.9297 36.4799 37.9297 35.9359C37.9297 35.3599 38.1377 34.8799 38.5537 34.4959C38.9697 34.1119 39.4497 33.9199 39.9937 33.9199Z" fill="white"/>
</g>
</svg>
