<svg preserveAspectRatio="none" width="100%" height="100%" overflow="visible" style="display: block;" viewBox="0 0 40 40" fill="none" xmlns="http://www.w3.org/2000/svg">
<g id="Monogram">
<path id="Ellipse 31" d="M40 20C40 31.0457 31.0457 40 20 40C8.95431 40 0 31.0457 0 20C0 8.95431 8.95431 0 20 0C31.0457 0 40 8.95431 40 20Z" fill="var(--fill-0, white)"/>
<g id="Brandmark">
<path id="Vector" d="M14.1333 10L19.5947 20.9653L25.1698 10H27.2747C27.2747 10 27.2222 19.1111 27.2222 23.6667C25.8889 23.8624 25.5556 24.3333 25.1698 25.1111C25.1698 22.6667 25.1698 16.2578 25.1698 16.2578L20.5902 24.5778H18.656L14.1333 16.2578V29.9111H12V10H14.1333Z" fill="var(--fill-0, #383838)"/>
<path id="Rectangle 137" d="M25.1627 28.8008C25.0125 27.4592 25.9453 26.2534 27.2463 26.1077L29.6019 25.8438C29.9271 25.8074 30.2213 26.0498 30.2588 26.3852L30.4629 28.2071C30.6132 29.5488 29.6804 30.7545 28.3794 30.9002L26.0238 31.1641C25.6985 31.2005 25.4044 30.9582 25.3668 30.6228L25.1627 28.8008Z" fill="var(--fill-0, #72B847)"/>
</g>
</g>
</svg>
