<svg preserveAspectRatio="none" width="100%" height="100%" overflow="visible" style="display: block;" viewBox="0 0 124 80" fill="none" xmlns="http://www.w3.org/2000/svg">
<g id="Updated_logo_dark 1" clip-path="url(#clip0_0_16)">
<path id="Vector" d="M110.508 6.58711C110.508 4.5742 111.092 3.01877 112.262 1.92083C113.43 0.802549 115.03 0.243408 117.059 0.243408C119.07 0.243408 120.638 0.812715 121.766 1.95133C122.894 3.06961 123.458 4.62504 123.458 6.61761V16.0899C123.458 17.3303 123.191 18.4078 122.658 19.3228C122.125 20.2174 121.366 20.9087 120.382 21.3967C119.418 21.8643 118.3 22.0982 117.029 22.0982C115.819 22.0982 114.722 21.8745 113.738 21.4272C112.753 20.9799 111.964 20.309 111.369 19.4143C110.795 18.5196 110.508 17.4115 110.508 16.0899V6.58711ZM111.492 16.0899C111.492 17.2285 111.738 18.174 112.23 18.9263C112.723 19.6786 113.378 20.2479 114.199 20.6343C115.04 21.0002 115.973 21.1832 116.998 21.1832C118.044 21.1832 118.977 21.0002 119.798 20.6343C120.638 20.2479 121.294 19.6786 121.766 18.9263C122.258 18.174 122.504 17.2285 122.504 16.0899V6.46512C122.504 5.34683 122.289 4.40138 121.858 3.62875C121.448 2.85612 120.833 2.25632 120.012 1.82933C119.213 1.40235 118.219 1.18886 117.029 1.18886C115.84 1.18886 114.835 1.40235 114.015 1.82933C113.194 2.25632 112.569 2.86629 112.138 3.65925C111.708 4.45221 111.492 5.39767 111.492 6.49562V16.0899Z" fill="var(--fill-0, white)"/>
<path id="Vector_2" d="M77.6807 0C79.2392 0 80.5414 0.284653 81.5872 0.853962C82.6536 1.42327 83.4533 2.22639 83.9865 3.26334C84.5402 4.27997 84.8169 5.47958 84.8169 6.86218V15.8847C84.8169 17.2266 84.5709 18.355 84.0787 19.27C83.6071 20.1646 82.8893 20.8458 81.9255 21.3134C80.9617 21.7608 79.7519 21.9844 78.2959 21.9844H71.8672V0H77.6807ZM77.9268 21.0695C78.8701 21.0695 79.7109 20.9779 80.4491 20.7949C81.1873 20.612 81.8026 20.3171 82.2947 19.9105C82.8074 19.4835 83.1867 18.9244 83.4328 18.2331C83.6994 17.5417 83.8327 16.6979 83.8327 15.7016V6.86218C83.8327 5.70323 83.6174 4.67645 83.1867 3.78182C82.7561 2.8872 82.1101 2.18573 81.2489 1.67742C80.4081 1.16911 79.3213 0.914956 77.9884 0.914956H72.8515V21.0695H77.9268Z" fill="var(--fill-0, white)"/>
<path id="Vector_3" d="M58.38 15.9939C58.38 17.2952 58.1032 18.3932 57.5495 19.2878C57.0164 20.1824 56.2679 20.8636 55.3041 21.3312C54.3403 21.7785 53.2227 22.0022 51.9512 22.0022C50.6799 22.0022 49.552 21.7785 48.5676 21.3312C47.5834 20.8839 46.8144 20.213 46.2607 19.3183C45.7275 18.4237 45.4609 17.3155 45.4609 15.9939V0H46.4145V15.9939C46.4145 17.1123 46.6503 18.0475 47.1219 18.7998C47.6141 19.5522 48.2703 20.1214 49.0906 20.5078C49.9314 20.8941 50.8849 21.0872 51.9512 21.0872C53.0381 21.0872 53.9916 20.9043 54.8119 20.5383C55.6322 20.1519 56.2679 19.5827 56.719 18.8303C57.1701 18.0781 57.3957 17.1325 57.3957 15.9939V0H58.38V15.9939Z" fill="var(--fill-0, white)"/>
<path id="Vector_4" d="M29.8165 1.01041V22.0798H28.8937V1.01041H23.2031V0.095459H35.5993V1.01041H29.8165Z" fill="var(--fill-0, white)"/>
<path id="Vector_5" d="M13.0676 2.15196C12.637 1.88764 12.1653 1.67415 11.6527 1.51149C11.14 1.34883 10.6171 1.22683 10.0839 1.14551C9.5508 1.06418 9.02788 1.02351 8.51523 1.02351C7.8795 1.02351 7.2233 1.09468 6.54658 1.237C5.86986 1.37933 5.24442 1.61315 4.67024 1.93847C4.09606 2.24345 3.63466 2.66027 3.28605 3.18891C2.93744 3.71755 2.76314 4.34786 2.76314 5.07982C2.76314 5.81179 2.93744 6.44209 3.28605 6.97073C3.63466 7.47904 4.10631 7.92636 4.701 8.31267C5.29568 8.67865 5.96215 9.01415 6.70038 9.31916C7.43861 9.60379 8.19735 9.88842 8.97658 10.1731C9.77638 10.4578 10.5454 10.7831 11.2836 11.1491C12.0424 11.4947 12.719 11.9115 13.3137 12.3995C13.9084 12.8671 14.38 13.4365 14.7287 14.1074C15.0773 14.7784 15.2516 15.5917 15.2516 16.5473C15.2516 17.5232 15.0363 18.3671 14.6056 19.0787C14.1955 19.7903 13.6418 20.3698 12.9446 20.8171C12.2474 21.2644 11.4681 21.5897 10.6068 21.793C9.7661 22.0167 8.90481 22.1285 8.02305 22.1285C7.07975 22.1285 6.14671 22.0066 5.22392 21.7625C4.32163 21.5389 3.48087 21.1831 2.70162 20.6951C1.92237 20.2071 1.23541 19.5768 0.640719 18.8042L1.28667 18.2552C1.79933 18.9261 2.41453 19.4751 3.13226 19.9021C3.87049 20.3291 4.64973 20.6544 5.46999 20.8781C6.31075 21.0814 7.14127 21.1831 7.96152 21.1831C8.72026 21.1831 9.46876 21.1017 10.207 20.9391C10.9658 20.7764 11.6424 20.5121 12.2371 20.1461C12.8523 19.7598 13.3342 19.2616 13.6828 18.6517C14.0519 18.0417 14.2365 17.2996 14.2365 16.4253C14.2365 15.612 14.0622 14.9207 13.7136 14.3514C13.365 13.7618 12.8934 13.2636 12.2987 12.8569C11.704 12.43 11.0375 12.0538 10.2993 11.7285C9.56099 11.4032 8.79202 11.0982 7.99228 10.8136C7.21304 10.5289 6.4543 10.2239 5.71607 9.89861C4.97784 9.55293 4.31138 9.17676 3.71669 8.77011C3.122 8.34317 2.65036 7.83485 2.30175 7.24522C1.95314 6.65558 1.77883 5.95411 1.77883 5.14082C1.77883 4.22586 1.97364 3.45323 2.36326 2.82292C2.77339 2.17229 3.30656 1.65381 3.96277 1.26749C4.63948 0.86085 5.37771 0.566031 6.17746 0.38304C6.97722 0.200048 7.76671 0.108552 8.54598 0.108552C9.12011 0.108552 9.67378 0.159384 10.207 0.261045C10.7607 0.342375 11.304 0.46437 11.8372 0.627029C12.3704 0.789687 12.8831 1.00317 13.3753 1.26749L13.0676 2.15196Z" fill="var(--fill-0, white)"/>
<path id="Vector_6" d="M116.242 29.3861C116.434 29.3048 116.638 29.2641 116.858 29.2641C117.076 29.2641 117.295 29.2641 117.513 29.2641C118.006 29.2641 118.443 29.3454 118.825 29.5081C119.208 29.6436 119.536 29.8741 119.81 30.1994C120.056 30.4976 120.247 30.8771 120.384 31.338C120.521 31.7718 120.589 32.2733 120.589 32.8426V35.1198H116.283L117.226 37.9663H120.589V55.4522H123.706V33.0866C123.706 31.8666 123.529 30.8365 123.173 29.9961C122.79 29.1556 122.298 28.4779 121.697 27.9629C121.095 27.4478 120.439 27.0818 119.728 26.8649C119.017 26.648 118.306 26.5396 117.596 26.5396C117.376 26.5396 117.172 26.5531 116.98 26.5802C116.762 26.5802 116.556 26.5938 116.365 26.6209C116.147 26.6209 115.941 26.648 115.75 26.7022L116.242 29.3861Z" fill="var(--fill-0, white)"/>
<path id="Vector_7" d="M110.114 41.7413C110.114 40.8196 109.978 40.0605 109.704 39.4641C109.431 38.8676 109.034 38.4204 108.515 38.1221C107.995 37.7968 107.394 37.58 106.71 37.4715C106.027 37.3359 105.275 37.2682 104.455 37.2682L104.618 35.0723C106.259 35.0723 107.626 35.2214 108.72 35.5196C109.814 35.8178 110.675 36.3058 111.303 36.9835C111.96 37.6342 112.425 38.5288 112.698 39.6674C112.999 40.7789 113.149 42.1615 113.149 43.8153V55.1353C113.039 55.1624 112.794 55.1895 112.411 55.2166C112.055 55.2437 111.632 55.2708 111.14 55.2979C110.648 55.3522 110.114 55.3929 109.54 55.42C108.993 55.4741 108.446 55.5012 107.899 55.5012C107.352 55.5283 106.847 55.5419 106.382 55.5419C105.125 55.569 103.948 55.4741 102.855 55.2573C101.761 55.0675 100.804 54.715 99.9838 54.2C99.1642 53.6578 98.5212 52.9258 98.0567 52.0041C97.5912 51.0553 97.3594 49.8624 97.3594 48.4256V45.5231C97.3594 44.4116 97.5233 43.4763 97.8511 42.7172C98.1798 41.9311 98.6308 41.294 99.2049 40.806C99.7791 40.3181 100.421 39.9657 101.132 39.7487C101.871 39.5319 102.636 39.4234 103.429 39.4234C104.249 39.4234 105.069 39.5319 105.89 39.7487C106.71 39.9385 107.476 40.2096 108.186 40.562C108.924 40.8873 109.567 41.2804 110.114 41.7413ZM110.114 44.1406C109.595 43.8424 108.98 43.5577 108.269 43.2866C107.585 42.9884 106.847 42.7443 106.054 42.5546C105.289 42.3377 104.509 42.2293 103.716 42.2293C103.388 42.2293 103.033 42.2835 102.65 42.3919C102.267 42.4733 101.898 42.636 101.542 42.8799C101.214 43.1239 100.941 43.4763 100.723 43.9372C100.504 44.3981 100.394 45.008 100.394 45.7672V48.019C100.394 48.8323 100.476 49.5507 100.64 50.1742C100.804 50.7977 101.105 51.3263 101.542 51.7601C101.98 52.1667 102.595 52.4649 103.388 52.6547C104.181 52.8445 105.179 52.9123 106.382 52.858C106.792 52.858 107.175 52.8445 107.531 52.8174C107.913 52.7902 108.255 52.7631 108.556 52.736C108.884 52.709 109.157 52.6954 109.376 52.6954C109.622 52.6683 109.8 52.6547 109.909 52.6547C110.046 52.6276 110.114 52.6141 110.114 52.6141V44.1406Z" fill="var(--fill-0, white)"/>
<path id="Vector_8" d="M82.4959 49.4134C82.4959 50.0098 82.5916 50.5249 82.7829 50.9586C82.9744 51.3924 83.2341 51.7584 83.5622 52.0566C83.9176 52.3277 84.3278 52.531 84.7926 52.6666C85.285 52.8021 85.804 52.8699 86.3509 52.8699C87.2809 52.8699 88.2237 52.7073 89.1808 52.3819C90.1652 52.0566 91.136 51.6499 92.0931 51.162L93.2414 53.6425C92.2571 54.239 91.1496 54.7133 89.9189 55.0658C88.7163 55.3911 87.5544 55.5537 86.4333 55.5537C85.4218 55.5537 84.4782 55.4454 83.6032 55.2284C82.7556 55.0387 82.0174 54.7133 81.3885 54.2525C80.787 53.7645 80.3086 53.141 79.953 52.3819C79.6249 51.6229 79.4609 50.7011 79.4609 49.6167V41.9158C79.4609 40.3706 79.789 39.0828 80.4452 38.0527C81.1014 37.0225 82.0037 36.2498 83.1521 35.7348C84.3004 35.2197 85.5993 34.9622 87.0482 34.9622C88.4971 34.9622 89.755 35.2197 90.8217 35.7348C91.9148 36.2228 92.7624 36.9819 93.3646 38.012C93.9659 39.015 94.2665 40.2757 94.2665 41.7938V47.4055L82.4959 48.0155V49.4134ZM91.1903 41.9971C91.1903 41.1568 91.0264 40.4113 90.6986 39.7606C90.3707 39.1099 89.8917 38.5948 89.2632 38.2153C88.6339 37.8358 87.8822 37.646 87.0074 37.646C86.0231 37.6731 85.1891 37.8764 84.5055 38.256C83.8493 38.6084 83.3435 39.1235 82.9881 39.8012C82.6599 40.479 82.4959 41.3058 82.4959 42.2818V45.169L91.1903 44.7623V41.9971Z" fill="var(--fill-0, white)"/>
<path id="Vector_9" d="M71.7812 55.4522V26.9868H74.8162V55.4522H71.7812Z" fill="var(--fill-0, white)"/>
<path id="Vector_10" d="M62.8025 49.449C62.8025 50.1268 62.9119 50.7096 63.1307 51.1976C63.3494 51.6585 63.6638 52.038 64.074 52.3362C64.4841 52.6344 65.0036 52.8513 65.6324 52.9868L64.6892 55.3454C62.994 55.0201 61.7362 54.383 60.9159 53.4341C60.123 52.4582 59.7266 51.1298 59.7266 49.449V26.9868H62.8025V34.4843H67.437L66.4527 37.2496H62.8025V49.449Z" fill="var(--fill-0, white)"/>
<path id="Vector_11" d="M52.9308 41.5455C52.9308 40.7865 52.8078 40.1493 52.5617 39.6343C52.3156 39.1192 51.9739 38.699 51.5364 38.3737C51.0989 38.0484 50.6067 37.8179 50.0599 37.6824C49.5404 37.5197 48.9799 37.4383 48.3784 37.4383C47.8589 37.4383 47.3394 37.479 46.8199 37.5604C46.3277 37.6417 45.8356 37.7773 45.3434 37.967C44.8513 38.1568 44.3455 38.4008 43.826 38.699V55.4529H40.75V35.0798H43.826V36.2997C44.2634 36.0286 44.7556 35.7711 45.3024 35.5271C45.8493 35.2831 46.4371 35.0934 47.066 34.9578C47.6948 34.7951 48.3237 34.7139 48.9526 34.7139C49.7729 34.7139 50.5384 34.8087 51.2493 34.9985C51.9602 35.1611 52.6027 35.4187 53.1769 35.7711C53.7511 36.1236 54.2432 36.5709 54.6534 37.113C55.0635 37.6281 55.3779 38.2381 55.5967 38.943C55.8154 39.6478 55.9248 40.4747 55.9248 41.4235V55.4529H52.9308V41.5455Z" fill="var(--fill-0, white)"/>
<path id="Vector_12" d="M124 62.2829V63.5537H0V62.2829H124Z" fill="var(--fill-0, #72B847)"/>
<path id="Vector_13" d="M117.205 71.426C117.094 71.3497 116.966 71.2904 116.82 71.248C116.684 71.1972 116.538 71.1591 116.385 71.1337C116.239 71.1082 116.094 71.0955 115.949 71.0955C115.778 71.0955 115.599 71.1167 115.41 71.1591C115.231 71.1929 115.065 71.2523 114.911 71.337C114.757 71.4132 114.633 71.5149 114.539 71.642C114.445 71.769 114.398 71.9215 114.398 72.0995C114.398 72.3113 114.463 72.4892 114.59 72.6332C114.727 72.7772 114.903 72.9086 115.116 73.0271C115.33 73.1373 115.564 73.2431 115.821 73.3449C116.077 73.438 116.334 73.5439 116.59 73.6625C116.854 73.7726 117.094 73.9039 117.308 74.0564C117.521 74.2089 117.692 74.3953 117.82 74.6156C117.957 74.8274 118.026 75.09 118.026 75.4035C118.026 75.7085 117.961 75.9753 117.833 76.2041C117.704 76.4328 117.534 76.6234 117.321 76.7759C117.107 76.9284 116.868 77.0428 116.603 77.119C116.346 77.1953 116.081 77.2334 115.808 77.2334C115.355 77.2334 114.915 77.1359 114.488 76.9411C114.061 76.7463 113.697 76.4794 113.398 76.1406L113.796 75.7212C113.992 75.9076 114.193 76.0643 114.398 76.1913C114.604 76.3184 114.821 76.4159 115.052 76.4836C115.291 76.5429 115.543 76.5726 115.808 76.5726C115.97 76.5726 116.141 76.5514 116.321 76.5091C116.5 76.4667 116.667 76.3989 116.82 76.3057C116.983 76.2041 117.111 76.0812 117.205 75.9372C117.308 75.7932 117.359 75.6195 117.359 75.4162C117.359 75.1875 117.291 74.9926 117.154 74.8316C117.026 74.6622 116.854 74.5182 116.641 74.3996C116.427 74.2725 116.188 74.1581 115.923 74.0564C115.667 73.9548 115.406 73.8489 115.141 73.7388C114.886 73.6287 114.65 73.5016 114.436 73.3575C114.223 73.2135 114.048 73.0441 113.911 72.8492C113.783 72.6459 113.719 72.4045 113.719 72.1249C113.719 71.8537 113.779 71.6208 113.899 71.426C114.018 71.2227 114.176 71.0532 114.373 70.9177C114.577 70.7737 114.804 70.6677 115.052 70.5999C115.299 70.5321 115.551 70.4983 115.808 70.4983C115.979 70.4983 116.154 70.511 116.334 70.5364C116.513 70.5534 116.701 70.5957 116.898 70.6635C117.094 70.7228 117.295 70.816 117.5 70.9431L117.205 71.426Z" fill="var(--fill-0, white)"/>
<path id="Vector_14" d="M111.258 77.1701V68.2747H111.975V77.1701H111.258Z" fill="var(--fill-0, white)"/>
<path id="Vector_15" d="M105.616 75.3076C105.616 75.5364 105.65 75.7312 105.719 75.8922C105.795 76.0447 105.898 76.1718 106.026 76.2735C106.155 76.3666 106.304 76.4387 106.475 76.4895C106.655 76.5318 106.847 76.553 107.051 76.553C107.368 76.553 107.68 76.5064 107.987 76.4132C108.295 76.3116 108.607 76.1802 108.923 76.0193L109.205 76.5658C108.889 76.7521 108.543 76.9003 108.167 77.0105C107.791 77.1122 107.44 77.163 107.116 77.163C106.792 77.163 106.492 77.1333 106.218 77.074C105.946 77.0148 105.71 76.913 105.514 76.769C105.317 76.625 105.163 76.4344 105.052 76.1972C104.95 75.96 104.898 75.6634 104.898 75.3076V72.7026C104.898 72.2196 105.001 71.8173 105.206 71.4954C105.411 71.1734 105.693 70.932 106.052 70.771C106.411 70.6101 106.817 70.5295 107.27 70.5295C107.731 70.5295 108.128 70.6101 108.461 70.771C108.804 70.932 109.064 71.1692 109.244 71.4826C109.431 71.7961 109.526 72.19 109.526 72.6644V74.3165L105.616 74.5198V75.3076ZM108.808 72.5755C108.808 72.279 108.739 72.0248 108.602 71.813C108.466 71.5928 108.282 71.4234 108.051 71.3047C107.821 71.1861 107.556 71.1269 107.257 71.1269C106.923 71.1269 106.633 71.1903 106.386 71.3174C106.138 71.4361 105.946 71.6139 105.809 71.8511C105.681 72.0884 105.616 72.3764 105.616 72.7153V73.8208L108.808 73.681V72.5755Z" fill="var(--fill-0, white)"/>
<path id="Vector_16" d="M101.302 73.3574L102.918 70.8159H103.712L101.712 74.0055L103.712 77.1698H102.866L101.302 74.6536L99.7258 77.1698H98.8672L100.879 74.0055L98.8672 70.8159H99.7004L101.302 73.3574Z" fill="var(--fill-0, white)"/>
<path id="Vector_17" d="M96.4856 77.2018V70.8352H97.216V77.2018H96.4856ZM96.8576 68.1793C96.9773 68.1793 97.0793 68.2216 97.165 68.3064C97.2508 68.3911 97.2933 68.4927 97.2933 68.6114C97.2933 68.7214 97.2508 68.8189 97.165 68.9036C97.0793 68.9883 96.9773 69.0307 96.8576 69.0307C96.7463 69.0307 96.6436 68.9883 96.5501 68.9036C96.4644 68.8189 96.4219 68.7214 96.4219 68.6114C96.4219 68.4927 96.4644 68.3911 96.5501 68.3064C96.6436 68.2216 96.7463 68.1793 96.8576 68.1793Z" fill="var(--fill-0, white)"/>
<path id="Vector_18" d="M94.7816 74.774C94.7816 75.5449 94.5931 76.138 94.2177 76.553C93.8499 76.9597 93.3115 77.1631 92.6023 77.1631C92.3373 77.1631 92.0859 77.1207 91.8464 77.036C91.6069 76.9597 91.3937 76.8496 91.2052 76.7056C91.026 76.5616 90.885 76.4048 90.7831 76.2354V79.7045L90.0391 79.3996V70.6567H90.7831V71.2539C90.9708 71.1014 91.1627 70.9744 91.3597 70.8727C91.5644 70.7626 91.7691 70.6821 91.9747 70.6313C92.1878 70.572 92.3976 70.5381 92.6023 70.5296C93.0813 70.5042 93.4788 70.5762 93.7947 70.7456C94.1192 70.9066 94.3629 71.1481 94.5251 71.4699C94.6959 71.7834 94.7816 72.1647 94.7816 72.6137V74.774ZM94.0512 72.6518C94.0512 72.3637 94.0037 72.1223 93.9102 71.9275C93.8245 71.7242 93.7047 71.5674 93.551 71.4573C93.4057 71.3386 93.235 71.2581 93.038 71.2158C92.8503 71.165 92.6541 71.1481 92.4486 71.165C92.2609 71.1819 92.0604 71.2243 91.8464 71.2921C91.6417 71.3599 91.4447 71.453 91.257 71.5717C91.0693 71.6902 90.9105 71.8385 90.7831 72.0164V74.7994C90.7831 75.0705 90.8298 75.312 90.9232 75.5237C91.0175 75.7355 91.1457 75.9135 91.3079 76.0575C91.4702 76.2015 91.6587 76.3116 91.8719 76.3878C92.0859 76.4641 92.3161 76.5023 92.5641 76.5023C92.8885 76.5023 93.1577 76.4429 93.3718 76.3243C93.5934 76.2057 93.7608 76.0278 93.8712 75.7906C93.9909 75.5534 94.0512 75.2527 94.0512 74.8884V72.6518Z" fill="var(--fill-0, white)"/>
<path id="Vector_19" d="M83.5829 77.0106C83.5914 77.0106 83.5444 77.0149 83.4419 77.0234C83.3479 77.0319 83.2197 77.0403 83.0574 77.0488C82.9036 77.0657 82.7327 77.0784 82.5447 77.0869C82.3653 77.1039 82.1901 77.1166 82.0192 77.125C81.8483 77.1335 81.7031 77.1377 81.5835 77.1377C81.1734 77.1462 80.7888 77.1208 80.43 77.0615C80.0711 77.0022 79.7593 76.8921 79.4944 76.7311C79.2295 76.5616 79.0202 76.3244 78.8664 76.0195C78.7211 75.7145 78.6484 75.329 78.6484 74.863V72.4486C78.6484 72.0927 78.7083 71.792 78.8279 71.5463C78.9561 71.3007 79.1227 71.1058 79.3277 70.9618C79.5413 70.8093 79.7721 70.6991 80.0198 70.6314C80.2761 70.5636 80.5325 70.5297 80.7888 70.5297C81.2075 70.5297 81.5877 70.5763 81.9295 70.6695C82.2713 70.7627 82.5874 70.8728 82.8779 70.9999V68.1152H83.5829V77.0106ZM82.8779 71.6353C82.5362 71.4912 82.1944 71.3727 81.8526 71.2794C81.5194 71.1778 81.1477 71.127 80.7376 71.127C80.6265 71.127 80.4941 71.1439 80.3403 71.1778C80.1865 71.2117 80.0327 71.2752 79.8788 71.3685C79.7336 71.4616 79.6097 71.6014 79.5072 71.7878C79.4047 71.9657 79.3534 72.2029 79.3534 72.4994V74.7741C79.3534 75.0791 79.3876 75.346 79.4559 75.5747C79.5243 75.795 79.6396 75.9813 79.802 76.1338C79.9643 76.2778 80.1822 76.3838 80.4556 76.4515C80.7376 76.5109 81.0922 76.5363 81.5194 76.5278C81.6817 76.5193 81.8312 76.5108 81.968 76.5023C82.1132 76.4938 82.2414 76.4854 82.3525 76.4769C82.4636 76.4685 82.5575 76.46 82.6344 76.4515C82.7113 76.4431 82.7711 76.4389 82.8138 76.4389C82.8565 76.4303 82.8779 76.4261 82.8779 76.4261V71.6353Z" fill="var(--fill-0, white)"/>
<path id="Vector_20" d="M76.3369 72.8554C76.3369 72.5673 76.2899 72.3301 76.1959 72.1437C76.102 71.9488 75.9738 71.7963 75.8114 71.6862C75.6491 71.5676 75.4697 71.4829 75.2731 71.432C75.0766 71.3813 74.8758 71.3558 74.6708 71.3558C74.4743 71.3558 74.282 71.3728 74.094 71.4067C73.9146 71.4405 73.7394 71.4914 73.5686 71.5591C73.3977 71.6185 73.2225 71.6989 73.0431 71.8006V77.2014H72.3125V70.8348H73.0431V71.2669C73.2054 71.1568 73.3806 71.0635 73.5686 70.9873C73.7651 70.9026 73.9659 70.839 74.171 70.7967C74.3846 70.7458 74.5982 70.7205 74.8118 70.7205C75.0938 70.7205 75.3501 70.7501 75.5807 70.8094C75.82 70.8687 76.0294 70.9577 76.2087 71.0762C76.3882 71.1948 76.5378 71.3389 76.6573 71.5083C76.7855 71.6778 76.8795 71.8726 76.9393 72.0928C77.0077 72.3046 77.0418 72.5461 77.0418 72.8172V77.2014H76.3369V72.8554Z" fill="var(--fill-0, white)"/>
<path id="Vector_21" d="M70.7811 74.6603C70.7811 75.4059 70.5889 76.0074 70.2044 76.4648C69.8199 76.9138 69.2389 77.1383 68.4614 77.1383C67.9316 77.1383 67.4831 77.0282 67.1156 76.808C66.7567 76.5792 66.4876 76.2784 66.3082 75.9056C66.1287 75.5329 66.0391 75.1178 66.0391 74.6603V72.9956C66.0391 72.4534 66.133 72.0002 66.321 71.6359C66.509 71.2631 66.7824 70.9835 67.1412 70.7972C67.5001 70.6023 67.9316 70.5049 68.4357 70.5049C69.1961 70.5049 69.7772 70.7252 70.1788 71.1657C70.5803 71.6062 70.7811 72.2162 70.7811 72.9956V74.6603ZM70.0635 72.9956C70.0635 72.5889 70.0079 72.2501 69.8968 71.979C69.7857 71.6994 69.6106 71.4918 69.3714 71.3563C69.1406 71.2123 68.8373 71.1403 68.4614 71.1403C68.0854 71.1403 67.7693 71.2123 67.513 71.3563C67.2651 71.4918 67.0772 71.6994 66.949 71.979C66.8209 72.2501 66.7567 72.5889 66.7567 72.9956V74.7874C66.7567 75.1263 66.8251 75.427 66.9618 75.6896C67.1071 75.9438 67.3079 76.1429 67.5642 76.2869C67.8205 76.4309 68.1195 76.5029 68.4614 76.5029C68.8202 76.5029 69.1193 76.4352 69.3585 76.2996C69.5978 76.1556 69.7729 75.9565 69.884 75.7024C70.0036 75.4397 70.0635 75.1348 70.0635 74.7874V72.9956Z" fill="var(--fill-0, white)"/>
<path id="Vector_22" d="M64.8214 71.0962C64.7103 71.147 64.612 71.2233 64.5266 71.3249C64.4411 71.4266 64.3984 71.6129 64.3984 71.8841V77.8567C64.3984 78.2041 64.3514 78.4963 64.2574 78.7335C64.172 78.9793 64.031 79.1783 63.8345 79.3308C63.6379 79.4833 63.3774 79.6146 63.0527 79.7248L62.8476 79.1783C62.9928 79.119 63.1167 79.047 63.2192 78.9622C63.3303 78.8775 63.4201 78.7759 63.4884 78.6573C63.5567 78.5472 63.6038 78.4201 63.6293 78.2761C63.6636 78.1405 63.6806 77.9965 63.6806 77.844V76.4335C63.5439 76.6029 63.3774 76.7427 63.1808 76.8528C62.9843 76.9629 62.7749 77.0434 62.5528 77.0943C62.3307 77.1536 62.1127 77.1832 61.8991 77.1832C61.5403 77.1832 61.2198 77.1409 60.9379 77.0561C60.6645 76.9714 60.4296 76.8444 60.233 76.6749C60.045 76.497 59.8997 76.2767 59.7972 76.0141C59.7032 75.743 59.6562 75.4253 59.6562 75.061V70.7023H60.3868V75.0102C60.3868 75.3067 60.4338 75.5524 60.5277 75.7473C60.6303 75.9421 60.7627 76.0945 60.9251 76.2047C61.0874 76.3148 61.2669 76.3953 61.4634 76.4461C61.6599 76.4885 61.8564 76.5097 62.0529 76.5097C62.2836 76.5097 62.4973 76.4673 62.6937 76.3826C62.8903 76.2894 63.0612 76.1666 63.2065 76.0141C63.3517 75.8616 63.467 75.6879 63.5525 75.4931C63.6379 75.2897 63.6806 75.078 63.6806 74.8577V71.8714C63.6806 71.6765 63.7105 71.4944 63.7703 71.3249C63.8387 71.147 63.937 70.9945 64.0651 70.8674C64.2019 70.7319 64.3685 70.6303 64.565 70.5625L64.8214 71.0962Z" fill="var(--fill-0, white)"/>
<path id="Vector_23" d="M54.3584 75.3076C54.3584 75.5364 54.3926 75.7312 54.4609 75.8922C54.5378 76.0447 54.6404 76.1718 54.7685 76.2735C54.8967 76.3666 55.0462 76.4387 55.2171 76.4895C55.3965 76.5318 55.5888 76.553 55.7938 76.553C56.11 76.553 56.4219 76.5064 56.7294 76.4132C57.037 76.3116 57.3489 76.1802 57.665 76.0193L57.947 76.5658C57.6309 76.7521 57.2849 76.9003 56.9089 77.0105C56.533 77.1122 56.1826 77.163 55.8579 77.163C55.5332 77.163 55.2342 77.1333 54.9608 77.074C54.6873 77.0148 54.4524 76.913 54.2559 76.769C54.0593 76.625 53.9055 76.4344 53.7944 76.1972C53.6919 75.96 53.6406 75.6634 53.6406 75.3076V72.7026C53.6406 72.2196 53.7432 71.8173 53.9482 71.4954C54.1534 71.1734 54.4353 70.932 54.7942 70.771C55.153 70.6101 55.5589 70.5295 56.0117 70.5295C56.4731 70.5295 56.8704 70.6101 57.2037 70.771C57.5454 70.932 57.806 71.1692 57.9855 71.4826C58.1734 71.7961 58.2674 72.19 58.2674 72.6644V74.3165L54.3584 74.5198V75.3076ZM57.5497 72.5755C57.5497 72.279 57.4814 72.0248 57.3447 71.813C57.2079 71.5928 57.0242 71.4234 56.7935 71.3047C56.5629 71.1861 56.298 71.1269 55.9989 71.1269C55.6656 71.1269 55.3752 71.1903 55.1274 71.3174C54.8796 71.4361 54.6873 71.6139 54.5507 71.8511C54.4225 72.0884 54.3584 72.3764 54.3584 72.7153V73.8208L57.5497 73.681V72.5755Z" fill="var(--fill-0, white)"/>
<path id="Vector_24" d="M48.0597 71.0638C48.2562 70.9791 48.457 70.9029 48.6621 70.8351C48.8757 70.7589 49.1021 70.6995 49.3414 70.6572C49.5891 70.6148 49.854 70.5937 50.136 70.5937C50.3923 70.5937 50.6444 70.6275 50.8922 70.6953C51.1485 70.7631 51.3792 70.8733 51.5843 71.0257C51.7893 71.1698 51.9517 71.3646 52.0713 71.6103C52.1994 71.856 52.2636 72.1567 52.2636 72.5125V74.927C52.2636 75.3929 52.1909 75.7784 52.0456 76.0834C51.9004 76.3884 51.6954 76.6256 51.4305 76.795C51.1656 76.956 50.8537 77.0661 50.4949 77.1255C50.1445 77.1848 49.7643 77.2102 49.3542 77.2017C49.2346 77.2017 49.0851 77.1975 48.9056 77.189C48.7347 77.1805 48.5553 77.1678 48.3673 77.1508C48.1879 77.1424 48.017 77.1297 47.8547 77.1128C47.6923 77.1043 47.5599 77.0957 47.4574 77.0873C47.3633 77.0788 47.3206 77.0746 47.3292 77.0746V68.1792H48.0597V71.0638ZM48.0597 76.5027C48.0597 76.5027 48.0896 76.507 48.1494 76.5155C48.2178 76.5155 48.3075 76.524 48.4185 76.5409C48.5382 76.5494 48.6834 76.5578 48.8543 76.5663C49.0252 76.5747 49.2132 76.5832 49.4183 76.5917C49.8455 76.6002 50.1958 76.5747 50.4692 76.5155C50.7512 76.4477 50.969 76.3418 51.1228 76.1978C51.2852 76.0453 51.3963 75.8589 51.4561 75.6387C51.5245 75.4099 51.5586 75.1431 51.5586 74.8381V72.5634C51.5586 72.2669 51.5117 72.0296 51.4176 71.8517C51.3236 71.6653 51.1998 71.5256 51.046 71.4323C50.9007 71.3392 50.7512 71.2756 50.5974 71.2418C50.4436 71.2078 50.3069 71.1909 50.1872 71.1909C49.9138 71.1909 49.6575 71.2121 49.4183 71.2545C49.1876 71.2968 48.9612 71.3561 48.739 71.4323C48.5168 71.5086 48.2904 71.5976 48.0597 71.6992V76.5027Z" fill="var(--fill-0, white)"/>
<path id="Vector_25" d="M39.9549 71.4325C39.8439 71.3563 39.7157 71.297 39.5704 71.2546C39.4338 71.2038 39.2884 71.1657 39.1347 71.1403C38.9894 71.1149 38.8442 71.1022 38.6989 71.1022C38.528 71.1022 38.3486 71.1233 38.1606 71.1657C37.9812 71.1996 37.8145 71.2589 37.6608 71.3436C37.507 71.4198 37.3831 71.5215 37.2891 71.6485C37.1951 71.7757 37.1481 71.9281 37.1481 72.1061C37.1481 72.3178 37.2122 72.4958 37.3404 72.6398C37.4771 72.7838 37.6522 72.9152 37.8658 73.0337C38.0794 73.1439 38.3144 73.2497 38.5708 73.3514C38.8271 73.4446 39.0834 73.5505 39.3397 73.6691C39.6046 73.7792 39.8439 73.9105 40.0575 74.063C40.2711 74.2155 40.442 74.4019 40.5701 74.6222C40.7068 74.834 40.7752 75.0966 40.7752 75.4101C40.7752 75.7151 40.7111 75.9819 40.583 76.2106C40.4548 76.4394 40.2839 76.63 40.0703 76.7825C39.8566 76.935 39.6175 77.0494 39.3526 77.1256C39.0962 77.2019 38.8313 77.24 38.5579 77.24C38.1051 77.24 37.6651 77.1425 37.2379 76.9477C36.8106 76.7529 36.4475 76.486 36.1484 76.1472L36.5457 75.7278C36.7423 75.9141 36.9431 76.0709 37.1481 76.1979C37.3532 76.325 37.571 76.4224 37.8017 76.4902C38.041 76.5495 38.293 76.5792 38.5579 76.5792C38.7202 76.5792 38.8911 76.558 39.0706 76.5157C39.25 76.4733 39.4166 76.4055 39.5704 76.3123C39.7328 76.2107 39.861 76.0878 39.9549 75.9438C40.0575 75.7998 40.1087 75.6261 40.1087 75.4228C40.1087 75.1941 40.0403 74.9992 39.9037 74.8382C39.7755 74.6688 39.6046 74.5248 39.391 74.4062C39.1774 74.2791 38.9382 74.1648 38.6733 74.063C38.417 73.9614 38.1564 73.8555 37.8915 73.7454C37.6352 73.6352 37.4002 73.5082 37.1866 73.3642C36.973 73.2201 36.7978 73.0506 36.6611 72.8558C36.5329 72.6525 36.4688 72.4111 36.4688 72.1315C36.4688 71.8604 36.5287 71.6274 36.6483 71.4325C36.7679 71.2293 36.926 71.0598 37.1225 70.9243C37.3275 70.7803 37.554 70.6743 37.8017 70.6065C38.0495 70.5388 38.3016 70.5049 38.5579 70.5049C38.7288 70.5049 38.904 70.5176 39.0834 70.543C39.2629 70.56 39.4508 70.6023 39.6474 70.6701C39.8439 70.7294 40.0447 70.8226 40.2497 70.9497L39.9549 71.4325Z" fill="var(--fill-0, white)"/>
<path id="Vector_26" d="M31.202 75.3076C31.202 75.5364 31.2363 75.7312 31.3046 75.8922C31.3815 76.0447 31.484 76.1718 31.6122 76.2735C31.7403 76.3666 31.8899 76.4387 32.0608 76.4895C32.2403 76.5318 32.4325 76.553 32.6376 76.553C32.9537 76.553 33.2655 76.5064 33.5732 76.4132C33.8807 76.3116 34.1926 76.1802 34.5088 76.0193L34.7907 76.5658C34.4745 76.7521 34.1285 76.9003 33.7525 77.0105C33.3766 77.1122 33.0263 77.163 32.7016 77.163C32.3769 77.163 32.0779 77.1333 31.8045 77.074C31.531 77.0148 31.2961 76.913 31.0995 76.769C30.903 76.625 30.7492 76.4344 30.6381 76.1972C30.5356 75.96 30.4844 75.6634 30.4844 75.3076V72.7026C30.4844 72.2196 30.5869 71.8173 30.7919 71.4954C30.997 71.1734 31.279 70.932 31.6378 70.771C31.9967 70.6101 32.4026 70.5295 32.8554 70.5295C33.3168 70.5295 33.7142 70.6101 34.0473 70.771C34.3891 70.932 34.6498 71.1692 34.8291 71.4826C35.0171 71.7961 35.1111 72.19 35.1111 72.6644V74.3165L31.202 74.5198V75.3076ZM34.3933 72.5755C34.3933 72.279 34.3251 72.0248 34.1883 71.813C34.0516 71.5928 33.8679 71.4234 33.6372 71.3047C33.4065 71.1861 33.1416 71.1269 32.8426 71.1269C32.5093 71.1269 32.2188 71.1903 31.9711 71.3174C31.7233 71.4361 31.531 71.6139 31.3943 71.8511C31.2662 72.0884 31.202 72.3764 31.202 72.7153V73.8208L34.3933 73.681V72.5755Z" fill="var(--fill-0, white)"/>
<path id="Vector_27" d="M27.8372 77.1376V70.771H28.5678V77.1376H27.8372ZM28.209 68.1151C28.3286 68.1151 28.4311 68.1575 28.5165 68.2422C28.602 68.3269 28.6447 68.4286 28.6447 68.5472C28.6447 68.6574 28.602 68.7548 28.5165 68.8395C28.4311 68.9242 28.3286 68.9666 28.209 68.9666C28.0979 68.9666 27.9954 68.9242 27.9014 68.8395C27.8159 68.7548 27.7732 68.6574 27.7732 68.5472C27.7732 68.4286 27.8159 68.3269 27.9014 68.2422C27.9954 68.1575 28.0979 68.1151 28.209 68.1151Z" fill="var(--fill-0, white)"/>
<path id="Vector_28" d="M26.4114 71.3103C26.4114 71.3103 26.3558 71.3061 26.2447 71.2976C26.1422 71.2891 26.0184 71.2891 25.8731 71.2976C25.6937 71.3061 25.5014 71.3314 25.2964 71.3738C25.0913 71.4077 24.8905 71.4585 24.694 71.5263C24.4974 71.5857 24.3137 71.6577 24.1428 71.7424C23.972 71.8186 23.8267 71.8949 23.7071 71.9711V77.1686H22.9766V70.802H23.7071V71.2214C24.0233 71.0773 24.348 70.9545 24.6811 70.8528C25.0229 70.7512 25.4245 70.6877 25.8859 70.6622C26.0397 70.6537 26.1721 70.6579 26.2832 70.6749C26.4029 70.6919 26.4627 70.7004 26.4627 70.7004L26.4114 71.3103Z" fill="var(--fill-0, white)"/>
<path id="Vector_29" d="M21.4061 74.6982C21.4061 75.4437 21.2139 76.0452 20.8294 76.5026C20.445 76.9517 19.8639 77.1762 19.0864 77.1762C18.5566 77.1762 18.1081 77.0661 17.7407 76.8458C17.3817 76.6171 17.1126 76.3163 16.9332 75.9436C16.7538 75.5708 16.6641 75.1557 16.6641 74.6982V73.0335C16.6641 72.4913 16.758 72.0381 16.946 71.6738C17.134 71.301 17.4074 71.0214 17.7663 70.835C18.1251 70.6402 18.5566 70.5427 19.0607 70.5427C19.8212 70.5427 20.4022 70.763 20.8038 71.2035C21.2053 71.6441 21.4061 72.2541 21.4061 73.0335V74.6982ZM20.6885 73.0335C20.6885 72.6269 20.6329 72.288 20.5218 72.0168C20.4107 71.7372 20.2356 71.5298 19.9964 71.3942C19.7657 71.2502 19.4623 71.1782 19.0864 71.1782C18.7104 71.1782 18.3943 71.2502 18.138 71.3942C17.8901 71.5298 17.7022 71.7372 17.574 72.0168C17.4459 72.288 17.3817 72.6269 17.3817 73.0335V74.8253C17.3817 75.1641 17.4501 75.4649 17.5868 75.7275C17.7321 75.9816 17.9329 76.1808 18.1892 76.3248C18.4455 76.4688 18.7446 76.5408 19.0864 76.5408C19.4452 76.5408 19.7443 76.473 19.9835 76.3375C20.2228 76.1934 20.3979 75.9943 20.509 75.7402C20.6287 75.4776 20.6885 75.1726 20.6885 74.8253V73.0335Z" fill="var(--fill-0, white)"/>
<path id="Vector_30" d="M14.3271 75.3333C14.3271 75.5535 14.357 75.7526 14.4168 75.9305C14.4852 76.0999 14.5791 76.244 14.6988 76.3626C14.827 76.4727 14.985 76.5616 15.173 76.6294L14.9551 77.1759C14.4852 77.0319 14.1434 76.8116 13.9298 76.5151C13.7161 76.2186 13.6094 75.8246 13.6094 75.3333V68.1152H14.3271V70.6568H15.8779L15.5703 71.3176H14.3271V75.3333Z" fill="var(--fill-0, white)"/>
<path id="Vector_31" d="M11.1613 69.0818C10.9904 68.9887 10.8067 68.9124 10.6102 68.8531C10.4222 68.7938 10.2257 68.7514 10.0206 68.726C9.82405 68.7006 9.62328 68.6879 9.41825 68.6879C9.18758 68.6879 8.94832 68.7091 8.70049 68.7514C8.45272 68.7938 8.21775 68.87 7.9956 68.9802C7.78199 69.0818 7.60683 69.2259 7.47013 69.4122C7.34196 69.5986 7.27787 69.8316 7.27787 70.1112C7.27787 70.3823 7.34623 70.6153 7.48294 70.81C7.61965 71.0049 7.80335 71.1743 8.03405 71.3184C8.27329 71.4624 8.53386 71.5937 8.81583 71.7124C9.10638 71.8309 9.40543 71.9495 9.71305 72.0682C10.0292 72.1867 10.3282 72.3223 10.6102 72.4748C10.9006 72.6188 11.1613 72.7924 11.392 72.9958C11.6312 73.1907 11.8192 73.4321 11.9559 73.7202C12.0927 73.9997 12.1609 74.3343 12.1609 74.7241C12.1609 75.1476 12.0755 75.5162 11.9046 75.8297C11.7337 76.1346 11.5031 76.3887 11.2125 76.5921C10.922 76.787 10.5974 76.931 10.2385 77.0242C9.8796 77.1173 9.51218 77.164 9.13628 77.164C8.73472 77.164 8.35019 77.1173 7.98278 77.0242C7.61538 76.931 7.2736 76.787 6.95746 76.5921C6.64132 76.3972 6.35081 76.1473 6.08594 75.8424L6.53451 75.3976C6.71395 75.6348 6.94892 75.8339 7.23943 75.9948C7.52993 76.1558 7.83753 76.2787 8.16222 76.3634C8.4869 76.4396 8.79451 76.4778 9.08498 76.4778C9.38402 76.4778 9.67033 76.4438 9.94372 76.3761C10.2257 76.3083 10.4734 76.2024 10.687 76.0584C10.9092 75.9144 11.0801 75.7237 11.1998 75.4865C11.3279 75.2493 11.392 74.9613 11.392 74.6224C11.392 74.3343 11.3236 74.0887 11.1869 73.8853C11.0502 73.6735 10.8665 73.4914 10.6358 73.3389C10.4051 73.178 10.1445 73.034 9.85403 72.9069C9.56348 72.7798 9.26444 72.657 8.95682 72.5383C8.65777 72.4197 8.36301 72.2927 8.0725 72.1571C7.78199 72.0131 7.52139 71.8522 7.29069 71.6742C7.05999 71.4963 6.87629 71.2845 6.73958 71.0388C6.60287 70.7931 6.53451 70.5051 6.53451 70.1747C6.53451 69.7765 6.61569 69.4377 6.77803 69.1581C6.94892 68.8785 7.17107 68.654 7.44449 68.4846C7.72646 68.3151 8.03405 68.1923 8.36728 68.1161C8.70907 68.0398 9.05508 68.0017 9.40543 68.0017C9.6361 68.0017 9.86253 68.0186 10.0847 68.0525C10.3069 68.0864 10.5247 68.1372 10.7383 68.205C10.9605 68.2728 11.1698 68.3617 11.3663 68.4719L11.1613 69.0818Z" fill="var(--fill-0, white)"/>
<path id="Vector_32" d="M97.6719 0.864V0H98.7063V22.4H97.7058V0.96L97.6719 0.864Z" fill="var(--fill-0, white)"/>
<path id="Vector_33" d="M3.26137 26.9474L11.6105 43.5685L20.1335 26.9474H23.3514C23.3514 26.9474 23.3514 40.9263 23.3514 47.8316C21.2329 47.8316 20.3836 48.6737 20.1335 49.8526C20.1335 46.1474 20.1335 36.4328 20.1335 36.4328L13.1325 49.0442H10.1755L3.26137 36.4328V57.1284H0V26.9474H3.26137Z" fill="var(--fill-0, white)"/>
<path id="Vector_34" d="M20.0469 53.8948C20.0469 52.0345 21.5341 50.5264 23.3686 50.5264H26.6904C27.149 50.5264 27.5208 50.9034 27.5208 51.3685V53.8948C27.5208 55.7551 26.0336 57.2632 24.1991 57.2632H20.8773C20.4187 57.2632 20.0469 56.8862 20.0469 56.4211V53.8948Z" fill="var(--fill-0, #72B847)"/>
<path id="Vector_35" d="M32.4148 55.5789V35.328H35.4723V55.5789H32.4148ZM33.9639 28.5642C34.4531 28.5642 34.8608 28.7259 35.1869 29.0493C35.5403 29.3726 35.7169 29.7768 35.7169 30.2619C35.7169 30.72 35.5403 31.1242 35.1869 31.4745C34.8608 31.7979 34.4531 31.9596 33.9639 31.9596C33.5019 31.9596 33.0942 31.7979 32.7409 31.4745C32.3876 31.1242 32.2109 30.72 32.2109 30.2619C32.2109 29.7768 32.3876 29.3726 32.7409 29.0493C33.0942 28.7259 33.5019 28.5642 33.9639 28.5642Z" fill="var(--fill-0, white)"/>
</g>
<defs>
<clipPath id="clip0_0_16">
<rect width="124" height="80" fill="white"/>
</clipPath>
</defs>
</svg>
